<?xml version="1.0" encoding="UTF-8" standalone="no"?>
<!DOCTYPE svg PUBLIC "-//W3C//DTD SVG 1.1//EN"
 "http://www.w3.org/Graphics/SVG/1.1/DTD/svg11.dtd">
<!-- Generated by graphviz version 12.0.0 (0)
 -->
<!-- Title: snakemake_dag Pages: 1 -->
<svg width="593pt" height="980pt"
 viewBox="0.00 0.00 592.92 980.00" xmlns="http://www.w3.org/2000/svg" xmlns:xlink="http://www.w3.org/1999/xlink">
<g id="graph0" class="graph" transform="scale(1 1) rotate(0) translate(4 976)">
<title>snakemake_dag</title>
<polygon fill="white" stroke="none" points="-4,4 -4,-976 588.92,-976 588.92,4 -4,4"/>
<!-- 0 -->
<g id="node1" class="node">
<title>0</title>
<path fill="none" stroke="#56c9d8" stroke-width="2" stroke-dasharray="5,2" d="M264.45,-36C264.45,-36 234.45,-36 234.45,-36 228.45,-36 222.45,-30 222.45,-24 222.45,-24 222.45,-12 222.45,-12 222.45,-6 228.45,0 234.45,0 234.45,0 264.45,0 264.45,0 270.45,0 276.45,-6 276.45,-12 276.45,-12 276.45,-24 276.45,-24 276.45,-30 270.45,-36 264.45,-36"/>
<text text-anchor="middle" x="249.45" y="-13.75" font-family="sans" font-size="10.00">all</text>
</g>
<!-- 1 -->
<g id="node2" class="node">
<title>1</title>
<path fill="none" stroke="#56d87b" stroke-width="2" stroke-dasharray="5,2" d="M277.7,-108C277.7,-108 221.2,-108 221.2,-108 215.2,-108 209.2,-102 209.2,-96 209.2,-96 209.2,-84 209.2,-84 209.2,-78 215.2,-72 221.2,-72 221.2,-72 277.7,-72 277.7,-72 283.7,-72 289.7,-78 289.7,-84 289.7,-84 289.7,-96 289.7,-96 289.7,-102 283.7,-108 277.7,-108"/>
<text text-anchor="middle" x="249.45" y="-85.75" font-family="sans" font-size="10.00">piawka_agg_pi</text>
</g>
<!-- 1&#45;&gt;0 -->
<g id="edge1" class="edge">
<title>1&#45;&gt;0</title>
<path fill="none" stroke="grey" stroke-width="2" d="M249.45,-71.34C249.45,-64.75 249.45,-57.08 249.45,-49.67"/>
<polygon fill="grey" stroke="grey" stroke-width="2" points="252.95,-49.93 249.45,-39.93 245.95,-49.93 252.95,-49.93"/>
</g>
<!-- 2 -->
<g id="node3" class="node">
<title>2</title>
<path fill="none" stroke="#9fd856" stroke-width="2" stroke-dasharray="5,2" d="M267.2,-180C267.2,-180 231.7,-180 231.7,-180 225.7,-180 219.7,-174 219.7,-168 219.7,-168 219.7,-156 219.7,-156 219.7,-150 225.7,-144 231.7,-144 231.7,-144 267.2,-144 267.2,-144 273.2,-144 279.2,-150 279.2,-156 279.2,-156 279.2,-168 279.2,-168 279.2,-174 273.2,-180 267.2,-180"/>
<text text-anchor="middle" x="249.45" y="-157.75" font-family="sans" font-size="10.00">piawka_pi</text>
</g>
<!-- 2&#45;&gt;1 -->
<g id="edge2" class="edge">
<title>2&#45;&gt;1</title>
<path fill="none" stroke="grey" stroke-width="2" d="M249.45,-143.34C249.45,-136.75 249.45,-129.08 249.45,-121.67"/>
<polygon fill="grey" stroke="grey" stroke-width="2" points="252.95,-121.93 249.45,-111.93 245.95,-121.93 252.95,-121.93"/>
</g>
<!-- 3 -->
<g id="node4" class="node">
<title>3</title>
<path fill="none" stroke="#d8c356" stroke-width="2" stroke-dasharray="5,2" d="M303.82,-828C303.82,-828 269.07,-828 269.07,-828 263.07,-828 257.07,-822 257.07,-816 257.07,-816 257.07,-804 257.07,-804 257.07,-798 263.07,-792 269.07,-792 269.07,-792 303.82,-792 303.82,-792 309.82,-792 315.82,-798 315.82,-804 315.82,-804 315.82,-816 315.82,-816 315.82,-822 309.82,-828 303.82,-828"/>
<text text-anchor="middle" x="286.45" y="-805.75" font-family="sans" font-size="10.00">fasta2bed</text>
</g>
<!-- 3&#45;&gt;2 -->
<g id="edge3" class="edge">
<title>3&#45;&gt;2</title>
<path fill="none" stroke="grey" stroke-width="2" d="M256.42,-807.06C194.24,-802.42 54.42,-788.55 21.45,-756 -7.34,-727.59 2.45,-707.45 2.45,-667 2.45,-667 2.45,-667 2.45,-305 2.45,-212.06 135.5,-179.06 206.3,-168.07"/>
<polygon fill="grey" stroke="grey" stroke-width="2" points="206.77,-171.54 216.16,-166.64 205.77,-164.61 206.77,-171.54"/>
</g>
<!-- 15 -->
<g id="node16" class="node">
<title>15</title>
<path fill="none" stroke="#56d8c9" stroke-width="2" stroke-dasharray="5,2" d="M542.45,-756C542.45,-756 466.45,-756 466.45,-756 460.45,-756 454.45,-750 454.45,-744 454.45,-744 454.45,-732 454.45,-732 454.45,-726 460.45,-720 466.45,-720 466.45,-720 542.45,-720 542.45,-720 548.45,-720 554.45,-726 554.45,-732 554.45,-732 554.45,-744 554.45,-744 554.45,-750 548.45,-756 542.45,-756"/>
<text text-anchor="middle" x="504.45" y="-739" font-family="sans" font-size="10.00">bcftools_call</text>
<text text-anchor="middle" x="504.45" y="-728.5" font-family="sans" font-size="10.00">xyz: 00&#45;06C6&#45;0BF1</text>
</g>
<!-- 3&#45;&gt;15 -->
<g id="edge22" class="edge">
<title>3&#45;&gt;15</title>
<path fill="none" stroke="grey" stroke-width="2" d="M316.76,-799.27C348.78,-788.99 400.2,-772.48 441.12,-759.33"/>
<polygon fill="grey" stroke="grey" stroke-width="2" points="442.12,-762.69 450.57,-756.3 439.98,-756.02 442.12,-762.69"/>
</g>
<!-- 18 -->
<g id="node19" class="node">
<title>18</title>
<path fill="none" stroke="#56d8c9" stroke-width="2" stroke-dasharray="5,2" d="M106.45,-756C106.45,-756 42.45,-756 42.45,-756 36.45,-756 30.45,-750 30.45,-744 30.45,-744 30.45,-732 30.45,-732 30.45,-726 36.45,-720 42.45,-720 42.45,-720 106.45,-720 106.45,-720 112.45,-720 118.45,-726 118.45,-732 118.45,-732 118.45,-744 118.45,-744 118.45,-750 112.45,-756 106.45,-756"/>
<text text-anchor="middle" x="74.45" y="-739" font-family="sans" font-size="10.00">bcftools_call</text>
<text text-anchor="middle" x="74.45" y="-728.5" font-family="sans" font-size="10.00">xyz: AR7050922</text>
</g>
<!-- 3&#45;&gt;18 -->
<g id="edge25" class="edge">
<title>3&#45;&gt;18</title>
<path fill="none" stroke="grey" stroke-width="2" d="M256.07,-798.97C223.67,-788.27 171.58,-771.07 131.48,-757.83"/>
<polygon fill="grey" stroke="grey" stroke-width="2" points="132.66,-754.53 122.06,-754.72 130.46,-761.18 132.66,-754.53"/>
</g>
<!-- 21 -->
<g id="node22" class="node">
<title>21</title>
<path fill="none" stroke="#56d8c9" stroke-width="2" stroke-dasharray="5,2" d="M212.45,-756C212.45,-756 148.45,-756 148.45,-756 142.45,-756 136.45,-750 136.45,-744 136.45,-744 136.45,-732 136.45,-732 136.45,-726 142.45,-720 148.45,-720 148.45,-720 212.45,-720 212.45,-720 218.45,-720 224.45,-726 224.45,-732 224.45,-732 224.45,-744 224.45,-744 224.45,-750 218.45,-756 212.45,-756"/>
<text text-anchor="middle" x="180.45" y="-739" font-family="sans" font-size="10.00">bcftools_call</text>
<text text-anchor="middle" x="180.45" y="-728.5" font-family="sans" font-size="10.00">xyz: AR7050994</text>
</g>
<!-- 3&#45;&gt;21 -->
<g id="edge28" class="edge">
<title>3&#45;&gt;21</title>
<path fill="none" stroke="grey" stroke-width="2" d="M259.42,-791.15C246.84,-782.84 231.66,-772.82 217.99,-763.79"/>
<polygon fill="grey" stroke="grey" stroke-width="2" points="220.22,-761.07 209.95,-758.48 216.36,-766.91 220.22,-761.07"/>
</g>
<!-- 24 -->
<g id="node25" class="node">
<title>24</title>
<path fill="none" stroke="#56d8c9" stroke-width="2" stroke-dasharray="5,2" d="M318.45,-756C318.45,-756 254.45,-756 254.45,-756 248.45,-756 242.45,-750 242.45,-744 242.45,-744 242.45,-732 242.45,-732 242.45,-726 248.45,-720 254.45,-720 254.45,-720 318.45,-720 318.45,-720 324.45,-720 330.45,-726 330.45,-732 330.45,-732 330.45,-744 330.45,-744 330.45,-750 324.45,-756 318.45,-756"/>
<text text-anchor="middle" x="286.45" y="-739" font-family="sans" font-size="10.00">bcftools_call</text>
<text text-anchor="middle" x="286.45" y="-728.5" font-family="sans" font-size="10.00">xyz: AR7050995</text>
</g>
<!-- 3&#45;&gt;24 -->
<g id="edge31" class="edge">
<title>3&#45;&gt;24</title>
<path fill="none" stroke="grey" stroke-width="2" d="M286.45,-791.34C286.45,-784.75 286.45,-777.08 286.45,-769.67"/>
<polygon fill="grey" stroke="grey" stroke-width="2" points="289.95,-769.93 286.45,-759.93 282.95,-769.93 289.95,-769.93"/>
</g>
<!-- 27 -->
<g id="node28" class="node">
<title>27</title>
<path fill="none" stroke="#56d8c9" stroke-width="2" stroke-dasharray="5,2" d="M424.07,-756C424.07,-756 360.82,-756 360.82,-756 354.82,-756 348.82,-750 348.82,-744 348.82,-744 348.82,-732 348.82,-732 348.82,-726 354.82,-720 360.82,-720 360.82,-720 424.07,-720 424.07,-720 430.07,-720 436.07,-726 436.07,-732 436.07,-732 436.07,-744 436.07,-744 436.07,-750 430.07,-756 424.07,-756"/>
<text text-anchor="middle" x="392.45" y="-739" font-family="sans" font-size="10.00">bcftools_call</text>
<text text-anchor="middle" x="392.45" y="-728.5" font-family="sans" font-size="10.00">xyz: AS7062701</text>
</g>
<!-- 3&#45;&gt;27 -->
<g id="edge34" class="edge">
<title>3&#45;&gt;27</title>
<path fill="none" stroke="grey" stroke-width="2" d="M313.47,-791.15C326.05,-782.84 341.23,-772.82 354.91,-763.79"/>
<polygon fill="grey" stroke="grey" stroke-width="2" points="356.53,-766.91 362.95,-758.48 352.67,-761.07 356.53,-766.91"/>
</g>
<!-- 30 -->
<g id="node31" class="node">
<title>30</title>
<path fill="none" stroke="#d85656" stroke-width="2" stroke-dasharray="5,2" d="M341.2,-324C341.2,-324 299.7,-324 299.7,-324 293.7,-324 287.7,-318 287.7,-312 287.7,-312 287.7,-300 287.7,-300 287.7,-294 293.7,-288 299.7,-288 299.7,-288 341.2,-288 341.2,-288 347.2,-288 353.2,-294 353.2,-300 353.2,-300 353.2,-312 353.2,-312 353.2,-318 347.2,-324 341.2,-324"/>
<text text-anchor="middle" x="320.45" y="-301.75" font-family="sans" font-size="10.00">piawka_het</text>
</g>
<!-- 3&#45;&gt;30 -->
<g id="edge41" class="edge">
<title>3&#45;&gt;30</title>
<path fill="none" stroke="grey" stroke-width="2" d="M316.35,-807.36C380.56,-803.2 528.63,-790.08 563.45,-756 592.35,-727.71 582.45,-707.45 582.45,-667 582.45,-667 582.45,-667 582.45,-449 582.45,-352.12 442.26,-320.99 366.98,-311.26"/>
<polygon fill="grey" stroke="grey" stroke-width="2" points="367.51,-307.8 357.17,-310.09 366.68,-314.75 367.51,-307.8"/>
</g>
<!-- 4 -->
<g id="node5" class="node">
<title>4</title>
<path fill="none" stroke="#56a2d8" stroke-width="2" stroke-dasharray="5,2" d="M301.45,-900C301.45,-900 271.45,-900 271.45,-900 265.45,-900 259.45,-894 259.45,-888 259.45,-888 259.45,-876 259.45,-876 259.45,-870 265.45,-864 271.45,-864 271.45,-864 301.45,-864 301.45,-864 307.45,-864 313.45,-870 313.45,-876 313.45,-876 313.45,-888 313.45,-888 313.45,-894 307.45,-900 301.45,-900"/>
<text text-anchor="middle" x="286.45" y="-877.75" font-family="sans" font-size="10.00">gstacks</text>
</g>
<!-- 4&#45;&gt;3 -->
<g id="edge6" class="edge">
<title>4&#45;&gt;3</title>
<path fill="none" stroke="grey" stroke-width="2" d="M286.45,-863.34C286.45,-856.75 286.45,-849.08 286.45,-841.67"/>
<polygon fill="grey" stroke="grey" stroke-width="2" points="289.95,-841.93 286.45,-831.93 282.95,-841.93 289.95,-841.93"/>
</g>
<!-- 5 -->
<g id="node6" class="node">
<title>5</title>
<path fill="none" stroke="#59d856" stroke-width="2" stroke-dasharray="5,2" d="M106.45,-972C106.45,-972 30.45,-972 30.45,-972 24.45,-972 18.45,-966 18.45,-960 18.45,-960 18.45,-948 18.45,-948 18.45,-942 24.45,-936 30.45,-936 30.45,-936 106.45,-936 106.45,-936 112.45,-936 118.45,-942 118.45,-948 118.45,-948 118.45,-960 118.45,-960 118.45,-966 112.45,-972 106.45,-972"/>
<text text-anchor="middle" x="68.45" y="-955" font-family="sans" font-size="10.00">samtools_index</text>
<text text-anchor="middle" x="68.45" y="-944.5" font-family="sans" font-size="10.00">xyz: 00&#45;06C6&#45;0BF1</text>
</g>
<!-- 5&#45;&gt;4 -->
<g id="edge7" class="edge">
<title>5&#45;&gt;4</title>
<path fill="none" stroke="grey" stroke-width="2" d="M119.28,-936.68C157.94,-924.26 210.4,-907.42 246.18,-895.93"/>
<polygon fill="grey" stroke="grey" stroke-width="2" points="247.22,-899.27 255.67,-892.88 245.08,-892.61 247.22,-899.27"/>
</g>
<!-- 6 -->
<g id="node7" class="node">
<title>6</title>
<path fill="none" stroke="#59d856" stroke-width="2" stroke-dasharray="5,2" d="M212.45,-972C212.45,-972 148.45,-972 148.45,-972 142.45,-972 136.45,-966 136.45,-960 136.45,-960 136.45,-948 136.45,-948 136.45,-942 142.45,-936 148.45,-936 148.45,-936 212.45,-936 212.45,-936 218.45,-936 224.45,-942 224.45,-948 224.45,-948 224.45,-960 224.45,-960 224.45,-966 218.45,-972 212.45,-972"/>
<text text-anchor="middle" x="180.45" y="-955" font-family="sans" font-size="10.00">samtools_index</text>
<text text-anchor="middle" x="180.45" y="-944.5" font-family="sans" font-size="10.00">xyz: AR7050922</text>
</g>
<!-- 6&#45;&gt;4 -->
<g id="edge8" class="edge">
<title>6&#45;&gt;4</title>
<path fill="none" stroke="grey" stroke-width="2" d="M207.47,-935.15C220.05,-926.84 235.23,-916.82 248.91,-907.79"/>
<polygon fill="grey" stroke="grey" stroke-width="2" points="250.53,-910.91 256.95,-902.48 246.67,-905.07 250.53,-910.91"/>
</g>
<!-- 7 -->
<g id="node8" class="node">
<title>7</title>
<path fill="none" stroke="#59d856" stroke-width="2" stroke-dasharray="5,2" d="M318.45,-972C318.45,-972 254.45,-972 254.45,-972 248.45,-972 242.45,-966 242.45,-960 242.45,-960 242.45,-948 242.45,-948 242.45,-942 248.45,-936 254.45,-936 254.45,-936 318.45,-936 318.45,-936 324.45,-936 330.45,-942 330.45,-948 330.45,-948 330.45,-960 330.45,-960 330.45,-966 324.45,-972 318.45,-972"/>
<text text-anchor="middle" x="286.45" y="-955" font-family="sans" font-size="10.00">samtools_index</text>
<text text-anchor="middle" x="286.45" y="-944.5" font-family="sans" font-size="10.00">xyz: AR7050994</text>
</g>
<!-- 7&#45;&gt;4 -->
<g id="edge9" class="edge">
<title>7&#45;&gt;4</title>
<path fill="none" stroke="grey" stroke-width="2" d="M286.45,-935.34C286.45,-928.75 286.45,-921.08 286.45,-913.67"/>
<polygon fill="grey" stroke="grey" stroke-width="2" points="289.95,-913.93 286.45,-903.93 282.95,-913.93 289.95,-913.93"/>
</g>
<!-- 8 -->
<g id="node9" class="node">
<title>8</title>
<path fill="none" stroke="#59d856" stroke-width="2" stroke-dasharray="5,2" d="M424.45,-972C424.45,-972 360.45,-972 360.45,-972 354.45,-972 348.45,-966 348.45,-960 348.45,-960 348.45,-948 348.45,-948 348.45,-942 354.45,-936 360.45,-936 360.45,-936 424.45,-936 424.45,-936 430.45,-936 436.45,-942 436.45,-948 436.45,-948 436.45,-960 436.45,-960 436.45,-966 430.45,-972 424.45,-972"/>
<text text-anchor="middle" x="392.45" y="-955" font-family="sans" font-size="10.00">samtools_index</text>
<text text-anchor="middle" x="392.45" y="-944.5" font-family="sans" font-size="10.00">xyz: AR7050995</text>
</g>
<!-- 8&#45;&gt;4 -->
<g id="edge10" class="edge">
<title>8&#45;&gt;4</title>
<path fill="none" stroke="grey" stroke-width="2" d="M365.42,-935.15C352.84,-926.84 337.66,-916.82 323.99,-907.79"/>
<polygon fill="grey" stroke="grey" stroke-width="2" points="326.22,-905.07 315.95,-902.48 322.36,-910.91 326.22,-905.07"/>
</g>
<!-- 9 -->
<g id="node10" class="node">
<title>9</title>
<path fill="none" stroke="#59d856" stroke-width="2" stroke-dasharray="5,2" d="M530.07,-972C530.07,-972 466.82,-972 466.82,-972 460.82,-972 454.82,-966 454.82,-960 454.82,-960 454.82,-948 454.82,-948 454.82,-942 460.82,-936 466.82,-936 466.82,-936 530.07,-936 530.07,-936 536.07,-936 542.07,-942 542.07,-948 542.07,-948 542.07,-960 542.07,-960 542.07,-966 536.07,-972 530.07,-972"/>
<text text-anchor="middle" x="498.45" y="-955" font-family="sans" font-size="10.00">samtools_index</text>
<text text-anchor="middle" x="498.45" y="-944.5" font-family="sans" font-size="10.00">xyz: AS7062701</text>
</g>
<!-- 9&#45;&gt;4 -->
<g id="edge11" class="edge">
<title>9&#45;&gt;4</title>
<path fill="none" stroke="grey" stroke-width="2" d="M454,-938.33C416.32,-925.88 362.74,-908.19 326.39,-896.19"/>
<polygon fill="grey" stroke="grey" stroke-width="2" points="327.78,-892.96 317.18,-893.15 325.58,-899.61 327.78,-892.96"/>
</g>
<!-- 10 -->
<g id="node11" class="node">
<title>10</title>
<path fill="none" stroke="#56d8a2" stroke-width="2" stroke-dasharray="5,2" d="M300.45,-396C300.45,-396 270.45,-396 270.45,-396 264.45,-396 258.45,-390 258.45,-384 258.45,-384 258.45,-372 258.45,-372 258.45,-366 264.45,-360 270.45,-360 270.45,-360 300.45,-360 300.45,-360 306.45,-360 312.45,-366 312.45,-372 312.45,-372 312.45,-384 312.45,-384 312.45,-390 306.45,-396 300.45,-396"/>
<text text-anchor="middle" x="285.45" y="-373.75" font-family="sans" font-size="10.00">reheader</text>
</g>
<!-- 10&#45;&gt;2 -->
<g id="edge4" class="edge">
<title>10&#45;&gt;2</title>
<path fill="none" stroke="grey" stroke-width="2" d="M282.44,-359.12C276.3,-322.62 262.25,-239.13 254.62,-193.74"/>
<polygon fill="grey" stroke="grey" stroke-width="2" points="258.08,-193.24 252.97,-183.96 251.18,-194.4 258.08,-193.24"/>
</g>
<!-- 10&#45;&gt;30 -->
<g id="edge42" class="edge">
<title>10&#45;&gt;30</title>
<path fill="none" stroke="grey" stroke-width="2" d="M294.28,-359.34C297.77,-352.34 301.89,-344.12 305.81,-336.28"/>
<polygon fill="grey" stroke="grey" stroke-width="2" points="308.8,-338.12 310.14,-327.61 302.54,-334.99 308.8,-338.12"/>
</g>
<!-- 11 -->
<g id="node12" class="node">
<title>11</title>
<path fill="none" stroke="#d87d56" stroke-width="2" stroke-dasharray="5,2" d="M314.82,-468C314.82,-468 256.07,-468 256.07,-468 250.07,-468 244.07,-462 244.07,-456 244.07,-456 244.07,-444 244.07,-444 244.07,-438 250.07,-432 256.07,-432 256.07,-432 314.82,-432 314.82,-432 320.82,-432 326.82,-438 326.82,-444 326.82,-444 326.82,-456 326.82,-456 326.82,-462 320.82,-468 314.82,-468"/>
<text text-anchor="middle" x="285.45" y="-445.75" font-family="sans" font-size="10.00">bcftools_merge</text>
</g>
<!-- 11&#45;&gt;10 -->
<g id="edge12" class="edge">
<title>11&#45;&gt;10</title>
<path fill="none" stroke="grey" stroke-width="2" d="M285.45,-431.34C285.45,-424.75 285.45,-417.08 285.45,-409.67"/>
<polygon fill="grey" stroke="grey" stroke-width="2" points="288.95,-409.93 285.45,-399.93 281.95,-409.93 288.95,-409.93"/>
</g>
<!-- 12 -->
<g id="node13" class="node">
<title>12</title>
<path fill="none" stroke="#78d856" stroke-width="2" stroke-dasharray="5,2" d="M264.7,-540C264.7,-540 190.2,-540 190.2,-540 184.2,-540 178.2,-534 178.2,-528 178.2,-528 178.2,-516 178.2,-516 178.2,-510 184.2,-504 190.2,-504 190.2,-504 264.7,-504 264.7,-504 270.7,-504 276.7,-510 276.7,-516 276.7,-516 276.7,-528 276.7,-528 276.7,-534 270.7,-540 264.7,-540"/>
<text text-anchor="middle" x="227.45" y="-523" font-family="sans" font-size="10.00">bcftools_submerge</text>
<text text-anchor="middle" x="227.45" y="-512.5" font-family="sans" font-size="10.00">i: 0</text>
</g>
<!-- 12&#45;&gt;11 -->
<g id="edge13" class="edge">
<title>12&#45;&gt;11</title>
<path fill="none" stroke="grey" stroke-width="2" d="M242.08,-503.34C248.22,-495.93 255.5,-487.14 262.33,-478.9"/>
<polygon fill="grey" stroke="grey" stroke-width="2" points="265,-481.17 268.68,-471.23 259.61,-476.7 265,-481.17"/>
</g>
<!-- 13 -->
<g id="node14" class="node">
<title>13</title>
<path fill="none" stroke="#d8a456" stroke-width="2" stroke-dasharray="5,2" d="M492.95,-612C492.95,-612 443.95,-612 443.95,-612 437.95,-612 431.95,-606 431.95,-600 431.95,-600 431.95,-588 431.95,-588 431.95,-582 437.95,-576 443.95,-576 443.95,-576 492.95,-576 492.95,-576 498.95,-576 504.95,-582 504.95,-588 504.95,-588 504.95,-600 504.95,-600 504.95,-606 498.95,-612 492.95,-612"/>
<text text-anchor="middle" x="468.45" y="-589.75" font-family="sans" font-size="10.00">bcftools_sort</text>
</g>
<!-- 13&#45;&gt;12 -->
<g id="edge15" class="edge">
<title>13&#45;&gt;12</title>
<path fill="none" stroke="grey" stroke-width="2" d="M431.23,-578.6C428.6,-577.69 425.99,-576.81 423.45,-576 367.22,-558.05 349.35,-556.81 290.07,-540.93"/>
<polygon fill="grey" stroke="grey" stroke-width="2" points="291.12,-537.59 280.56,-538.34 289.29,-544.34 291.12,-537.59"/>
</g>
<!-- 28 -->
<g id="node29" class="node">
<title>28</title>
<path fill="none" stroke="#78d856" stroke-width="2" stroke-dasharray="5,2" d="M381.7,-540C381.7,-540 307.2,-540 307.2,-540 301.2,-540 295.2,-534 295.2,-528 295.2,-528 295.2,-516 295.2,-516 295.2,-510 301.2,-504 307.2,-504 307.2,-504 381.7,-504 381.7,-504 387.7,-504 393.7,-510 393.7,-516 393.7,-516 393.7,-528 393.7,-528 393.7,-534 387.7,-540 381.7,-540"/>
<text text-anchor="middle" x="344.45" y="-523" font-family="sans" font-size="10.00">bcftools_submerge</text>
<text text-anchor="middle" x="344.45" y="-512.5" font-family="sans" font-size="10.00">i: 1</text>
</g>
<!-- 13&#45;&gt;28 -->
<g id="edge35" class="edge">
<title>13&#45;&gt;28</title>
<path fill="none" stroke="grey" stroke-width="2" d="M436.83,-575.15C421.68,-566.6 403.3,-556.22 386.94,-546.99"/>
<polygon fill="grey" stroke="grey" stroke-width="2" points="389.06,-544.17 378.64,-542.3 385.62,-550.26 389.06,-544.17"/>
</g>
<!-- 14 -->
<g id="node15" class="node">
<title>14</title>
<path fill="none" stroke="#567bd8" stroke-width="2" stroke-dasharray="5,2" d="M516.32,-684C516.32,-684 466.57,-684 466.57,-684 460.57,-684 454.57,-678 454.57,-672 454.57,-672 454.57,-660 454.57,-660 454.57,-654 460.57,-648 466.57,-648 466.57,-648 516.32,-648 516.32,-648 522.32,-648 528.32,-654 528.32,-660 528.32,-660 528.32,-672 528.32,-672 528.32,-678 522.32,-684 516.32,-684"/>
<text text-anchor="middle" x="491.45" y="-661.75" font-family="sans" font-size="10.00">vcftools_filter</text>
</g>
<!-- 14&#45;&gt;13 -->
<g id="edge20" class="edge">
<title>14&#45;&gt;13</title>
<path fill="none" stroke="grey" stroke-width="2" d="M485.64,-647.34C483.43,-640.59 480.83,-632.69 478.34,-625.11"/>
<polygon fill="grey" stroke="grey" stroke-width="2" points="481.72,-624.19 475.27,-615.78 475.07,-626.37 481.72,-624.19"/>
</g>
<!-- 15&#45;&gt;14 -->
<g id="edge21" class="edge">
<title>15&#45;&gt;14</title>
<path fill="none" stroke="grey" stroke-width="2" d="M501.17,-719.34C499.94,-712.75 498.52,-705.08 497.14,-697.67"/>
<polygon fill="grey" stroke="grey" stroke-width="2" points="500.59,-697.07 495.32,-687.88 493.71,-698.35 500.59,-697.07"/>
</g>
<!-- 16 -->
<g id="node17" class="node">
<title>16</title>
<path fill="none" stroke="#d8a456" stroke-width="2" stroke-dasharray="5,2" d="M128.95,-612C128.95,-612 79.95,-612 79.95,-612 73.95,-612 67.95,-606 67.95,-600 67.95,-600 67.95,-588 67.95,-588 67.95,-582 73.95,-576 79.95,-576 79.95,-576 128.95,-576 128.95,-576 134.95,-576 140.95,-582 140.95,-588 140.95,-588 140.95,-600 140.95,-600 140.95,-606 134.95,-612 128.95,-612"/>
<text text-anchor="middle" x="104.45" y="-589.75" font-family="sans" font-size="10.00">bcftools_sort</text>
</g>
<!-- 16&#45;&gt;12 -->
<g id="edge16" class="edge">
<title>16&#45;&gt;12</title>
<path fill="none" stroke="grey" stroke-width="2" d="M135.8,-575.15C150.69,-566.68 168.72,-556.42 184.83,-547.25"/>
<polygon fill="grey" stroke="grey" stroke-width="2" points="186.56,-550.3 193.52,-542.31 183.09,-544.21 186.56,-550.3"/>
</g>
<!-- 16&#45;&gt;28 -->
<g id="edge36" class="edge">
<title>16&#45;&gt;28</title>
<path fill="none" stroke="grey" stroke-width="2" d="M141.67,-578.6C144.29,-577.69 146.9,-576.82 149.45,-576 205.27,-558.12 222.99,-556.76 281.9,-540.91"/>
<polygon fill="grey" stroke="grey" stroke-width="2" points="282.61,-544.35 291.33,-538.34 280.77,-537.6 282.61,-544.35"/>
</g>
<!-- 17 -->
<g id="node18" class="node">
<title>17</title>
<path fill="none" stroke="#567bd8" stroke-width="2" stroke-dasharray="5,2" d="M106.32,-684C106.32,-684 56.57,-684 56.57,-684 50.57,-684 44.57,-678 44.57,-672 44.57,-672 44.57,-660 44.57,-660 44.57,-654 50.57,-648 56.57,-648 56.57,-648 106.32,-648 106.32,-648 112.32,-648 118.32,-654 118.32,-660 118.32,-660 118.32,-672 118.32,-672 118.32,-678 112.32,-684 106.32,-684"/>
<text text-anchor="middle" x="81.45" y="-661.75" font-family="sans" font-size="10.00">vcftools_filter</text>
</g>
<!-- 17&#45;&gt;16 -->
<g id="edge23" class="edge">
<title>17&#45;&gt;16</title>
<path fill="none" stroke="grey" stroke-width="2" d="M87.25,-647.34C89.47,-640.59 92.06,-632.69 94.55,-625.11"/>
<polygon fill="grey" stroke="grey" stroke-width="2" points="97.82,-626.37 97.62,-615.78 91.17,-624.19 97.82,-626.37"/>
</g>
<!-- 18&#45;&gt;17 -->
<g id="edge24" class="edge">
<title>18&#45;&gt;17</title>
<path fill="none" stroke="grey" stroke-width="2" d="M76.21,-719.34C76.87,-712.75 77.64,-705.08 78.38,-697.67"/>
<polygon fill="grey" stroke="grey" stroke-width="2" points="81.84,-698.21 79.35,-687.91 74.88,-697.52 81.84,-698.21"/>
</g>
<!-- 19 -->
<g id="node20" class="node">
<title>19</title>
<path fill="none" stroke="#d8a456" stroke-width="2" stroke-dasharray="5,2" d="M219.95,-612C219.95,-612 170.95,-612 170.95,-612 164.95,-612 158.95,-606 158.95,-600 158.95,-600 158.95,-588 158.95,-588 158.95,-582 164.95,-576 170.95,-576 170.95,-576 219.95,-576 219.95,-576 225.95,-576 231.95,-582 231.95,-588 231.95,-588 231.95,-600 231.95,-600 231.95,-606 225.95,-612 219.95,-612"/>
<text text-anchor="middle" x="195.45" y="-589.75" font-family="sans" font-size="10.00">bcftools_sort</text>
</g>
<!-- 19&#45;&gt;12 -->
<g id="edge17" class="edge">
<title>19&#45;&gt;12</title>
<path fill="none" stroke="grey" stroke-width="2" d="M203.52,-575.34C206.68,-568.43 210.39,-560.31 213.93,-552.56"/>
<polygon fill="grey" stroke="grey" stroke-width="2" points="217.03,-554.2 218,-543.65 210.66,-551.29 217.03,-554.2"/>
</g>
<!-- 19&#45;&gt;28 -->
<g id="edge37" class="edge">
<title>19&#45;&gt;28</title>
<path fill="none" stroke="grey" stroke-width="2" d="M232.66,-575.52C251.4,-566.72 274.37,-555.92 294.6,-546.42"/>
<polygon fill="grey" stroke="grey" stroke-width="2" points="295.85,-549.7 303.41,-542.28 292.87,-543.36 295.85,-549.7"/>
</g>
<!-- 20 -->
<g id="node21" class="node">
<title>20</title>
<path fill="none" stroke="#567bd8" stroke-width="2" stroke-dasharray="5,2" d="M212.32,-684C212.32,-684 162.57,-684 162.57,-684 156.57,-684 150.57,-678 150.57,-672 150.57,-672 150.57,-660 150.57,-660 150.57,-654 156.57,-648 162.57,-648 162.57,-648 212.32,-648 212.32,-648 218.32,-648 224.32,-654 224.32,-660 224.32,-660 224.32,-672 224.32,-672 224.32,-678 218.32,-684 212.32,-684"/>
<text text-anchor="middle" x="187.45" y="-661.75" font-family="sans" font-size="10.00">vcftools_filter</text>
</g>
<!-- 20&#45;&gt;19 -->
<g id="edge26" class="edge">
<title>20&#45;&gt;19</title>
<path fill="none" stroke="grey" stroke-width="2" d="M189.46,-647.34C190.22,-640.75 191.09,-633.08 191.94,-625.67"/>
<polygon fill="grey" stroke="grey" stroke-width="2" points="195.4,-626.24 193.06,-615.91 188.44,-625.45 195.4,-626.24"/>
</g>
<!-- 21&#45;&gt;20 -->
<g id="edge27" class="edge">
<title>21&#45;&gt;20</title>
<path fill="none" stroke="grey" stroke-width="2" d="M182.21,-719.34C182.87,-712.75 183.64,-705.08 184.38,-697.67"/>
<polygon fill="grey" stroke="grey" stroke-width="2" points="187.84,-698.21 185.35,-687.91 180.88,-697.52 187.84,-698.21"/>
</g>
<!-- 22 -->
<g id="node23" class="node">
<title>22</title>
<path fill="none" stroke="#d8a456" stroke-width="2" stroke-dasharray="5,2" d="M310.95,-612C310.95,-612 261.95,-612 261.95,-612 255.95,-612 249.95,-606 249.95,-600 249.95,-600 249.95,-588 249.95,-588 249.95,-582 255.95,-576 261.95,-576 261.95,-576 310.95,-576 310.95,-576 316.95,-576 322.95,-582 322.95,-588 322.95,-588 322.95,-600 322.95,-600 322.95,-606 316.95,-612 310.95,-612"/>
<text text-anchor="middle" x="286.45" y="-589.75" font-family="sans" font-size="10.00">bcftools_sort</text>
</g>
<!-- 22&#45;&gt;12 -->
<g id="edge18" class="edge">
<title>22&#45;&gt;12</title>
<path fill="none" stroke="grey" stroke-width="2" d="M271.56,-575.34C265.25,-567.85 257.74,-558.95 250.73,-550.63"/>
<polygon fill="grey" stroke="grey" stroke-width="2" points="253.61,-548.61 244.49,-543.22 248.25,-553.12 253.61,-548.61"/>
</g>
<!-- 22&#45;&gt;28 -->
<g id="edge38" class="edge">
<title>22&#45;&gt;28</title>
<path fill="none" stroke="grey" stroke-width="2" d="M301.08,-575.34C307.22,-567.93 314.5,-559.14 321.33,-550.9"/>
<polygon fill="grey" stroke="grey" stroke-width="2" points="324,-553.17 327.68,-543.23 318.61,-548.7 324,-553.17"/>
</g>
<!-- 23 -->
<g id="node24" class="node">
<title>23</title>
<path fill="none" stroke="#567bd8" stroke-width="2" stroke-dasharray="5,2" d="M311.32,-684C311.32,-684 261.57,-684 261.57,-684 255.57,-684 249.57,-678 249.57,-672 249.57,-672 249.57,-660 249.57,-660 249.57,-654 255.57,-648 261.57,-648 261.57,-648 311.32,-648 311.32,-648 317.32,-648 323.32,-654 323.32,-660 323.32,-660 323.32,-672 323.32,-672 323.32,-678 317.32,-684 311.32,-684"/>
<text text-anchor="middle" x="286.45" y="-661.75" font-family="sans" font-size="10.00">vcftools_filter</text>
</g>
<!-- 23&#45;&gt;22 -->
<g id="edge29" class="edge">
<title>23&#45;&gt;22</title>
<path fill="none" stroke="grey" stroke-width="2" d="M286.45,-647.34C286.45,-640.75 286.45,-633.08 286.45,-625.67"/>
<polygon fill="grey" stroke="grey" stroke-width="2" points="289.95,-625.93 286.45,-615.93 282.95,-625.93 289.95,-625.93"/>
</g>
<!-- 24&#45;&gt;23 -->
<g id="edge30" class="edge">
<title>24&#45;&gt;23</title>
<path fill="none" stroke="grey" stroke-width="2" d="M286.45,-719.34C286.45,-712.75 286.45,-705.08 286.45,-697.67"/>
<polygon fill="grey" stroke="grey" stroke-width="2" points="289.95,-697.93 286.45,-687.93 282.95,-697.93 289.95,-697.93"/>
</g>
<!-- 25 -->
<g id="node26" class="node">
<title>25</title>
<path fill="none" stroke="#d8a456" stroke-width="2" stroke-dasharray="5,2" d="M401.95,-612C401.95,-612 352.95,-612 352.95,-612 346.95,-612 340.95,-606 340.95,-600 340.95,-600 340.95,-588 340.95,-588 340.95,-582 346.95,-576 352.95,-576 352.95,-576 401.95,-576 401.95,-576 407.95,-576 413.95,-582 413.95,-588 413.95,-588 413.95,-600 413.95,-600 413.95,-606 407.95,-612 401.95,-612"/>
<text text-anchor="middle" x="377.45" y="-589.75" font-family="sans" font-size="10.00">bcftools_sort</text>
</g>
<!-- 25&#45;&gt;12 -->
<g id="edge19" class="edge">
<title>25&#45;&gt;12</title>
<path fill="none" stroke="grey" stroke-width="2" d="M339.98,-575.52C321.12,-566.72 297.99,-555.92 277.62,-546.42"/>
<polygon fill="grey" stroke="grey" stroke-width="2" points="279.28,-543.33 268.74,-542.27 276.32,-549.67 279.28,-543.33"/>
</g>
<!-- 25&#45;&gt;28 -->
<g id="edge39" class="edge">
<title>25&#45;&gt;28</title>
<path fill="none" stroke="grey" stroke-width="2" d="M369.12,-575.34C365.86,-568.43 362.03,-560.31 358.38,-552.56"/>
<polygon fill="grey" stroke="grey" stroke-width="2" points="361.61,-551.19 354.18,-543.64 355.27,-554.18 361.61,-551.19"/>
</g>
<!-- 26 -->
<g id="node27" class="node">
<title>26</title>
<path fill="none" stroke="#567bd8" stroke-width="2" stroke-dasharray="5,2" d="M410.32,-684C410.32,-684 360.57,-684 360.57,-684 354.57,-684 348.57,-678 348.57,-672 348.57,-672 348.57,-660 348.57,-660 348.57,-654 354.57,-648 360.57,-648 360.57,-648 410.32,-648 410.32,-648 416.32,-648 422.32,-654 422.32,-660 422.32,-660 422.32,-672 422.32,-672 422.32,-678 416.32,-684 410.32,-684"/>
<text text-anchor="middle" x="385.45" y="-661.75" font-family="sans" font-size="10.00">vcftools_filter</text>
</g>
<!-- 26&#45;&gt;25 -->
<g id="edge32" class="edge">
<title>26&#45;&gt;25</title>
<path fill="none" stroke="grey" stroke-width="2" d="M383.43,-647.34C382.68,-640.75 381.8,-633.08 380.95,-625.67"/>
<polygon fill="grey" stroke="grey" stroke-width="2" points="384.45,-625.45 379.84,-615.91 377.49,-626.24 384.45,-625.45"/>
</g>
<!-- 27&#45;&gt;26 -->
<g id="edge33" class="edge">
<title>27&#45;&gt;26</title>
<path fill="none" stroke="grey" stroke-width="2" d="M390.68,-719.34C390.02,-712.75 389.25,-705.08 388.51,-697.67"/>
<polygon fill="grey" stroke="grey" stroke-width="2" points="392.02,-697.52 387.54,-687.91 385.05,-698.21 392.02,-697.52"/>
</g>
<!-- 28&#45;&gt;11 -->
<g id="edge14" class="edge">
<title>28&#45;&gt;11</title>
<path fill="none" stroke="grey" stroke-width="2" d="M329.56,-503.34C323.25,-495.85 315.74,-486.95 308.73,-478.63"/>
<polygon fill="grey" stroke="grey" stroke-width="2" points="311.61,-476.61 302.49,-471.22 306.25,-481.12 311.61,-476.61"/>
</g>
<!-- 29 -->
<g id="node30" class="node">
<title>29</title>
<path fill="none" stroke="#c6d856" stroke-width="2" stroke-dasharray="5,2" d="M351.7,-252C351.7,-252 289.2,-252 289.2,-252 283.2,-252 277.2,-246 277.2,-240 277.2,-240 277.2,-228 277.2,-228 277.2,-222 283.2,-216 289.2,-216 289.2,-216 351.7,-216 351.7,-216 357.7,-216 363.7,-222 363.7,-228 363.7,-228 363.7,-240 363.7,-240 363.7,-246 357.7,-252 351.7,-252"/>
<text text-anchor="middle" x="320.45" y="-229.75" font-family="sans" font-size="10.00">piawka_agg_het</text>
</g>
<!-- 29&#45;&gt;2 -->
<g id="edge5" class="edge">
<title>29&#45;&gt;2</title>
<path fill="none" stroke="grey" stroke-width="2" d="M302.53,-215.34C294.69,-207.6 285.31,-198.36 276.64,-189.81"/>
<polygon fill="grey" stroke="grey" stroke-width="2" points="279.34,-187.56 269.76,-183.03 274.42,-192.54 279.34,-187.56"/>
</g>
<!-- 30&#45;&gt;29 -->
<g id="edge40" class="edge">
<title>30&#45;&gt;29</title>
<path fill="none" stroke="grey" stroke-width="2" d="M320.45,-287.34C320.45,-280.75 320.45,-273.08 320.45,-265.67"/>
<polygon fill="grey" stroke="grey" stroke-width="2" points="323.95,-265.93 320.45,-255.93 316.95,-265.93 323.95,-265.93"/>
</g>
</g>
</svg>
