<?xml version="1.0" encoding="UTF-8" standalone="no"?>
<!DOCTYPE svg PUBLIC "-//W3C//DTD SVG 1.1//EN"
 "http://www.w3.org/Graphics/SVG/1.1/DTD/svg11.dtd">
<!-- Generated by graphviz version 12.0.0 (0)
 -->
<!-- Title: snakemake_dag Pages: 1 -->
<svg width="593pt" height="836pt"
 viewBox="0.00 0.00 592.92 836.00" xmlns="http://www.w3.org/2000/svg" xmlns:xlink="http://www.w3.org/1999/xlink">
<g id="graph0" class="graph" transform="scale(1 1) rotate(0) translate(4 832)">
<title>snakemake_dag</title>
<polygon fill="white" stroke="none" points="-4,4 -4,-832 588.92,-832 588.92,4 -4,4"/>
<!-- 0 -->
<g id="node1" class="node">
<title>0</title>
<path fill="none" stroke="#56d8c9" stroke-width="2" stroke-dasharray="5,2" d="M300.45,-36C300.45,-36 270.45,-36 270.45,-36 264.45,-36 258.45,-30 258.45,-24 258.45,-24 258.45,-12 258.45,-12 258.45,-6 264.45,0 270.45,0 270.45,0 300.45,0 300.45,0 306.45,0 312.45,-6 312.45,-12 312.45,-12 312.45,-24 312.45,-24 312.45,-30 306.45,-36 300.45,-36"/>
<text text-anchor="middle" x="285.45" y="-13.75" font-family="sans" font-size="10.00">all</text>
</g>
<!-- 1 -->
<g id="node2" class="node">
<title>1</title>
<path fill="none" stroke="#9fd856" stroke-width="2" stroke-dasharray="5,2" d="M264.82,-108C264.82,-108 200.07,-108 200.07,-108 194.07,-108 188.07,-102 188.07,-96 188.07,-96 188.07,-84 188.07,-84 188.07,-78 194.07,-72 200.07,-72 200.07,-72 264.82,-72 264.82,-72 270.82,-72 276.82,-78 276.82,-84 276.82,-84 276.82,-96 276.82,-96 276.82,-102 270.82,-108 264.82,-108"/>
<text text-anchor="middle" x="232.45" y="-85.75" font-family="sans" font-size="10.00">piawka_agg_dxy</text>
</g>
<!-- 1&#45;&gt;0 -->
<g id="edge1" class="edge">
<title>1&#45;&gt;0</title>
<path fill="none" stroke="grey" stroke-width="2" d="M245.82,-71.34C251.36,-64.01 257.93,-55.34 264.11,-47.18"/>
<polygon fill="grey" stroke="grey" stroke-width="2" points="266.82,-49.4 270.06,-39.32 261.24,-45.18 266.82,-49.4"/>
</g>
<!-- 2 -->
<g id="node3" class="node">
<title>2</title>
<path fill="none" stroke="#567bd8" stroke-width="2" stroke-dasharray="5,2" d="M250.2,-180C250.2,-180 214.7,-180 214.7,-180 208.7,-180 202.7,-174 202.7,-168 202.7,-168 202.7,-156 202.7,-156 202.7,-150 208.7,-144 214.7,-144 214.7,-144 250.2,-144 250.2,-144 256.2,-144 262.2,-150 262.2,-156 262.2,-156 262.2,-168 262.2,-168 262.2,-174 256.2,-180 250.2,-180"/>
<text text-anchor="middle" x="232.45" y="-157.75" font-family="sans" font-size="10.00">piawka_pi</text>
</g>
<!-- 2&#45;&gt;1 -->
<g id="edge3" class="edge">
<title>2&#45;&gt;1</title>
<path fill="none" stroke="grey" stroke-width="2" d="M232.45,-143.34C232.45,-136.75 232.45,-129.08 232.45,-121.67"/>
<polygon fill="grey" stroke="grey" stroke-width="2" points="235.95,-121.93 232.45,-111.93 228.95,-121.93 235.95,-121.93"/>
</g>
<!-- 3 -->
<g id="node4" class="node">
<title>3</title>
<path fill="none" stroke="#78d856" stroke-width="2" stroke-dasharray="5,2" d="M303.82,-684C303.82,-684 269.07,-684 269.07,-684 263.07,-684 257.07,-678 257.07,-672 257.07,-672 257.07,-660 257.07,-660 257.07,-654 263.07,-648 269.07,-648 269.07,-648 303.82,-648 303.82,-648 309.82,-648 315.82,-654 315.82,-660 315.82,-660 315.82,-672 315.82,-672 315.82,-678 309.82,-684 303.82,-684"/>
<text text-anchor="middle" x="286.45" y="-661.75" font-family="sans" font-size="10.00">fasta2bed</text>
</g>
<!-- 3&#45;&gt;2 -->
<g id="edge4" class="edge">
<title>3&#45;&gt;2</title>
<path fill="none" stroke="grey" stroke-width="2" d="M256.42,-663.06C194.24,-658.42 54.42,-644.55 21.45,-612 -7.34,-583.59 2.45,-563.45 2.45,-523 2.45,-523 2.45,-523 2.45,-305 2.45,-218.11 122.76,-182.63 189.35,-169.64"/>
<polygon fill="grey" stroke="grey" stroke-width="2" points="189.72,-173.13 198.93,-167.88 188.46,-166.25 189.72,-173.13"/>
</g>
<!-- 15 -->
<g id="node16" class="node">
<title>15</title>
<path fill="none" stroke="#d8c356" stroke-width="2" stroke-dasharray="5,2" d="M542.45,-612C542.45,-612 466.45,-612 466.45,-612 460.45,-612 454.45,-606 454.45,-600 454.45,-600 454.45,-588 454.45,-588 454.45,-582 460.45,-576 466.45,-576 466.45,-576 542.45,-576 542.45,-576 548.45,-576 554.45,-582 554.45,-588 554.45,-588 554.45,-600 554.45,-600 554.45,-606 548.45,-612 542.45,-612"/>
<text text-anchor="middle" x="504.45" y="-595" font-family="sans" font-size="10.00">bcftools_call</text>
<text text-anchor="middle" x="504.45" y="-584.5" font-family="sans" font-size="10.00">xyz: 00&#45;06C6&#45;0BF1</text>
</g>
<!-- 3&#45;&gt;15 -->
<g id="edge22" class="edge">
<title>3&#45;&gt;15</title>
<path fill="none" stroke="grey" stroke-width="2" d="M316.76,-655.27C348.78,-644.99 400.2,-628.48 441.12,-615.33"/>
<polygon fill="grey" stroke="grey" stroke-width="2" points="442.12,-618.69 450.57,-612.3 439.98,-612.02 442.12,-618.69"/>
</g>
<!-- 18 -->
<g id="node19" class="node">
<title>18</title>
<path fill="none" stroke="#d8c356" stroke-width="2" stroke-dasharray="5,2" d="M106.45,-612C106.45,-612 42.45,-612 42.45,-612 36.45,-612 30.45,-606 30.45,-600 30.45,-600 30.45,-588 30.45,-588 30.45,-582 36.45,-576 42.45,-576 42.45,-576 106.45,-576 106.45,-576 112.45,-576 118.45,-582 118.45,-588 118.45,-588 118.45,-600 118.45,-600 118.45,-606 112.45,-612 106.45,-612"/>
<text text-anchor="middle" x="74.45" y="-595" font-family="sans" font-size="10.00">bcftools_call</text>
<text text-anchor="middle" x="74.45" y="-584.5" font-family="sans" font-size="10.00">xyz: AR7050922</text>
</g>
<!-- 3&#45;&gt;18 -->
<g id="edge25" class="edge">
<title>3&#45;&gt;18</title>
<path fill="none" stroke="grey" stroke-width="2" d="M256.07,-654.97C223.67,-644.27 171.58,-627.07 131.48,-613.83"/>
<polygon fill="grey" stroke="grey" stroke-width="2" points="132.66,-610.53 122.06,-610.72 130.46,-617.18 132.66,-610.53"/>
</g>
<!-- 21 -->
<g id="node22" class="node">
<title>21</title>
<path fill="none" stroke="#d8c356" stroke-width="2" stroke-dasharray="5,2" d="M212.45,-612C212.45,-612 148.45,-612 148.45,-612 142.45,-612 136.45,-606 136.45,-600 136.45,-600 136.45,-588 136.45,-588 136.45,-582 142.45,-576 148.45,-576 148.45,-576 212.45,-576 212.45,-576 218.45,-576 224.45,-582 224.45,-588 224.45,-588 224.45,-600 224.45,-600 224.45,-606 218.45,-612 212.45,-612"/>
<text text-anchor="middle" x="180.45" y="-595" font-family="sans" font-size="10.00">bcftools_call</text>
<text text-anchor="middle" x="180.45" y="-584.5" font-family="sans" font-size="10.00">xyz: AR7050994</text>
</g>
<!-- 3&#45;&gt;21 -->
<g id="edge28" class="edge">
<title>3&#45;&gt;21</title>
<path fill="none" stroke="grey" stroke-width="2" d="M259.42,-647.15C246.84,-638.84 231.66,-628.82 217.99,-619.79"/>
<polygon fill="grey" stroke="grey" stroke-width="2" points="220.22,-617.07 209.95,-614.48 216.36,-622.91 220.22,-617.07"/>
</g>
<!-- 24 -->
<g id="node25" class="node">
<title>24</title>
<path fill="none" stroke="#d8c356" stroke-width="2" stroke-dasharray="5,2" d="M318.45,-612C318.45,-612 254.45,-612 254.45,-612 248.45,-612 242.45,-606 242.45,-600 242.45,-600 242.45,-588 242.45,-588 242.45,-582 248.45,-576 254.45,-576 254.45,-576 318.45,-576 318.45,-576 324.45,-576 330.45,-582 330.45,-588 330.45,-588 330.45,-600 330.45,-600 330.45,-606 324.45,-612 318.45,-612"/>
<text text-anchor="middle" x="286.45" y="-595" font-family="sans" font-size="10.00">bcftools_call</text>
<text text-anchor="middle" x="286.45" y="-584.5" font-family="sans" font-size="10.00">xyz: AR7050995</text>
</g>
<!-- 3&#45;&gt;24 -->
<g id="edge31" class="edge">
<title>3&#45;&gt;24</title>
<path fill="none" stroke="grey" stroke-width="2" d="M286.45,-647.34C286.45,-640.75 286.45,-633.08 286.45,-625.67"/>
<polygon fill="grey" stroke="grey" stroke-width="2" points="289.95,-625.93 286.45,-615.93 282.95,-625.93 289.95,-625.93"/>
</g>
<!-- 27 -->
<g id="node28" class="node">
<title>27</title>
<path fill="none" stroke="#d8c356" stroke-width="2" stroke-dasharray="5,2" d="M424.07,-612C424.07,-612 360.82,-612 360.82,-612 354.82,-612 348.82,-606 348.82,-600 348.82,-600 348.82,-588 348.82,-588 348.82,-582 354.82,-576 360.82,-576 360.82,-576 424.07,-576 424.07,-576 430.07,-576 436.07,-582 436.07,-588 436.07,-588 436.07,-600 436.07,-600 436.07,-606 430.07,-612 424.07,-612"/>
<text text-anchor="middle" x="392.45" y="-595" font-family="sans" font-size="10.00">bcftools_call</text>
<text text-anchor="middle" x="392.45" y="-584.5" font-family="sans" font-size="10.00">xyz: AS7062701</text>
</g>
<!-- 3&#45;&gt;27 -->
<g id="edge34" class="edge">
<title>3&#45;&gt;27</title>
<path fill="none" stroke="grey" stroke-width="2" d="M313.47,-647.15C326.05,-638.84 341.23,-628.82 354.91,-619.79"/>
<polygon fill="grey" stroke="grey" stroke-width="2" points="356.53,-622.91 362.95,-614.48 352.67,-617.07 356.53,-622.91"/>
</g>
<!-- 30 -->
<g id="node31" class="node">
<title>30</title>
<path fill="none" stroke="#d87d56" stroke-width="2" stroke-dasharray="5,2" d="M359.2,-180C359.2,-180 317.7,-180 317.7,-180 311.7,-180 305.7,-174 305.7,-168 305.7,-168 305.7,-156 305.7,-156 305.7,-150 311.7,-144 317.7,-144 317.7,-144 359.2,-144 359.2,-144 365.2,-144 371.2,-150 371.2,-156 371.2,-156 371.2,-168 371.2,-168 371.2,-174 365.2,-180 359.2,-180"/>
<text text-anchor="middle" x="338.45" y="-157.75" font-family="sans" font-size="10.00">piawka_het</text>
</g>
<!-- 3&#45;&gt;30 -->
<g id="edge41" class="edge">
<title>3&#45;&gt;30</title>
<path fill="none" stroke="grey" stroke-width="2" d="M316.35,-663.36C380.56,-659.2 528.63,-646.08 563.45,-612 592.35,-583.71 582.45,-563.45 582.45,-523 582.45,-523 582.45,-523 582.45,-305 582.45,-214.45 455.36,-180.64 384.63,-168.83"/>
<polygon fill="grey" stroke="grey" stroke-width="2" points="385.53,-165.43 375.11,-167.34 384.45,-172.35 385.53,-165.43"/>
</g>
<!-- 4 -->
<g id="node5" class="node">
<title>4</title>
<path fill="none" stroke="#d8a456" stroke-width="2" stroke-dasharray="5,2" d="M301.45,-756C301.45,-756 271.45,-756 271.45,-756 265.45,-756 259.45,-750 259.45,-744 259.45,-744 259.45,-732 259.45,-732 259.45,-726 265.45,-720 271.45,-720 271.45,-720 301.45,-720 301.45,-720 307.45,-720 313.45,-726 313.45,-732 313.45,-732 313.45,-744 313.45,-744 313.45,-750 307.45,-756 301.45,-756"/>
<text text-anchor="middle" x="286.45" y="-733.75" font-family="sans" font-size="10.00">gstacks</text>
</g>
<!-- 4&#45;&gt;3 -->
<g id="edge6" class="edge">
<title>4&#45;&gt;3</title>
<path fill="none" stroke="grey" stroke-width="2" d="M286.45,-719.34C286.45,-712.75 286.45,-705.08 286.45,-697.67"/>
<polygon fill="grey" stroke="grey" stroke-width="2" points="289.95,-697.93 286.45,-687.93 282.95,-697.93 289.95,-697.93"/>
</g>
<!-- 5 -->
<g id="node6" class="node">
<title>5</title>
<path fill="none" stroke="#56c9d8" stroke-width="2" stroke-dasharray="5,2" d="M106.45,-828C106.45,-828 30.45,-828 30.45,-828 24.45,-828 18.45,-822 18.45,-816 18.45,-816 18.45,-804 18.45,-804 18.45,-798 24.45,-792 30.45,-792 30.45,-792 106.45,-792 106.45,-792 112.45,-792 118.45,-798 118.45,-804 118.45,-804 118.45,-816 118.45,-816 118.45,-822 112.45,-828 106.45,-828"/>
<text text-anchor="middle" x="68.45" y="-811" font-family="sans" font-size="10.00">samtools_index</text>
<text text-anchor="middle" x="68.45" y="-800.5" font-family="sans" font-size="10.00">xyz: 00&#45;06C6&#45;0BF1</text>
</g>
<!-- 5&#45;&gt;4 -->
<g id="edge7" class="edge">
<title>5&#45;&gt;4</title>
<path fill="none" stroke="grey" stroke-width="2" d="M119.28,-792.68C157.94,-780.26 210.4,-763.42 246.18,-751.93"/>
<polygon fill="grey" stroke="grey" stroke-width="2" points="247.22,-755.27 255.67,-748.88 245.08,-748.61 247.22,-755.27"/>
</g>
<!-- 6 -->
<g id="node7" class="node">
<title>6</title>
<path fill="none" stroke="#56c9d8" stroke-width="2" stroke-dasharray="5,2" d="M212.45,-828C212.45,-828 148.45,-828 148.45,-828 142.45,-828 136.45,-822 136.45,-816 136.45,-816 136.45,-804 136.45,-804 136.45,-798 142.45,-792 148.45,-792 148.45,-792 212.45,-792 212.45,-792 218.45,-792 224.45,-798 224.45,-804 224.45,-804 224.45,-816 224.45,-816 224.45,-822 218.45,-828 212.45,-828"/>
<text text-anchor="middle" x="180.45" y="-811" font-family="sans" font-size="10.00">samtools_index</text>
<text text-anchor="middle" x="180.45" y="-800.5" font-family="sans" font-size="10.00">xyz: AR7050922</text>
</g>
<!-- 6&#45;&gt;4 -->
<g id="edge8" class="edge">
<title>6&#45;&gt;4</title>
<path fill="none" stroke="grey" stroke-width="2" d="M207.47,-791.15C220.05,-782.84 235.23,-772.82 248.91,-763.79"/>
<polygon fill="grey" stroke="grey" stroke-width="2" points="250.53,-766.91 256.95,-758.48 246.67,-761.07 250.53,-766.91"/>
</g>
<!-- 7 -->
<g id="node8" class="node">
<title>7</title>
<path fill="none" stroke="#56c9d8" stroke-width="2" stroke-dasharray="5,2" d="M318.45,-828C318.45,-828 254.45,-828 254.45,-828 248.45,-828 242.45,-822 242.45,-816 242.45,-816 242.45,-804 242.45,-804 242.45,-798 248.45,-792 254.45,-792 254.45,-792 318.45,-792 318.45,-792 324.45,-792 330.45,-798 330.45,-804 330.45,-804 330.45,-816 330.45,-816 330.45,-822 324.45,-828 318.45,-828"/>
<text text-anchor="middle" x="286.45" y="-811" font-family="sans" font-size="10.00">samtools_index</text>
<text text-anchor="middle" x="286.45" y="-800.5" font-family="sans" font-size="10.00">xyz: AR7050994</text>
</g>
<!-- 7&#45;&gt;4 -->
<g id="edge9" class="edge">
<title>7&#45;&gt;4</title>
<path fill="none" stroke="grey" stroke-width="2" d="M286.45,-791.34C286.45,-784.75 286.45,-777.08 286.45,-769.67"/>
<polygon fill="grey" stroke="grey" stroke-width="2" points="289.95,-769.93 286.45,-759.93 282.95,-769.93 289.95,-769.93"/>
</g>
<!-- 8 -->
<g id="node9" class="node">
<title>8</title>
<path fill="none" stroke="#56c9d8" stroke-width="2" stroke-dasharray="5,2" d="M424.45,-828C424.45,-828 360.45,-828 360.45,-828 354.45,-828 348.45,-822 348.45,-816 348.45,-816 348.45,-804 348.45,-804 348.45,-798 354.45,-792 360.45,-792 360.45,-792 424.45,-792 424.45,-792 430.45,-792 436.45,-798 436.45,-804 436.45,-804 436.45,-816 436.45,-816 436.45,-822 430.45,-828 424.45,-828"/>
<text text-anchor="middle" x="392.45" y="-811" font-family="sans" font-size="10.00">samtools_index</text>
<text text-anchor="middle" x="392.45" y="-800.5" font-family="sans" font-size="10.00">xyz: AR7050995</text>
</g>
<!-- 8&#45;&gt;4 -->
<g id="edge10" class="edge">
<title>8&#45;&gt;4</title>
<path fill="none" stroke="grey" stroke-width="2" d="M365.42,-791.15C352.84,-782.84 337.66,-772.82 323.99,-763.79"/>
<polygon fill="grey" stroke="grey" stroke-width="2" points="326.22,-761.07 315.95,-758.48 322.36,-766.91 326.22,-761.07"/>
</g>
<!-- 9 -->
<g id="node10" class="node">
<title>9</title>
<path fill="none" stroke="#56c9d8" stroke-width="2" stroke-dasharray="5,2" d="M530.07,-828C530.07,-828 466.82,-828 466.82,-828 460.82,-828 454.82,-822 454.82,-816 454.82,-816 454.82,-804 454.82,-804 454.82,-798 460.82,-792 466.82,-792 466.82,-792 530.07,-792 530.07,-792 536.07,-792 542.07,-798 542.07,-804 542.07,-804 542.07,-816 542.07,-816 542.07,-822 536.07,-828 530.07,-828"/>
<text text-anchor="middle" x="498.45" y="-811" font-family="sans" font-size="10.00">samtools_index</text>
<text text-anchor="middle" x="498.45" y="-800.5" font-family="sans" font-size="10.00">xyz: AS7062701</text>
</g>
<!-- 9&#45;&gt;4 -->
<g id="edge11" class="edge">
<title>9&#45;&gt;4</title>
<path fill="none" stroke="grey" stroke-width="2" d="M454,-794.33C416.32,-781.88 362.74,-764.19 326.39,-752.19"/>
<polygon fill="grey" stroke="grey" stroke-width="2" points="327.78,-748.96 317.18,-749.15 325.58,-755.61 327.78,-748.96"/>
</g>
<!-- 10 -->
<g id="node11" class="node">
<title>10</title>
<path fill="none" stroke="#c6d856" stroke-width="2" stroke-dasharray="5,2" d="M300.45,-252C300.45,-252 270.45,-252 270.45,-252 264.45,-252 258.45,-246 258.45,-240 258.45,-240 258.45,-228 258.45,-228 258.45,-222 264.45,-216 270.45,-216 270.45,-216 300.45,-216 300.45,-216 306.45,-216 312.45,-222 312.45,-228 312.45,-228 312.45,-240 312.45,-240 312.45,-246 306.45,-252 300.45,-252"/>
<text text-anchor="middle" x="285.45" y="-229.75" font-family="sans" font-size="10.00">reheader</text>
</g>
<!-- 10&#45;&gt;2 -->
<g id="edge5" class="edge">
<title>10&#45;&gt;2</title>
<path fill="none" stroke="grey" stroke-width="2" d="M272.07,-215.34C266.53,-208.01 259.96,-199.34 253.78,-191.18"/>
<polygon fill="grey" stroke="grey" stroke-width="2" points="256.65,-189.18 247.83,-183.32 251.07,-193.4 256.65,-189.18"/>
</g>
<!-- 10&#45;&gt;30 -->
<g id="edge42" class="edge">
<title>10&#45;&gt;30</title>
<path fill="none" stroke="grey" stroke-width="2" d="M298.82,-215.34C304.36,-208.01 310.93,-199.34 317.11,-191.18"/>
<polygon fill="grey" stroke="grey" stroke-width="2" points="319.82,-193.4 323.06,-183.32 314.24,-189.18 319.82,-193.4"/>
</g>
<!-- 11 -->
<g id="node12" class="node">
<title>11</title>
<path fill="none" stroke="#56d8a2" stroke-width="2" stroke-dasharray="5,2" d="M314.82,-324C314.82,-324 256.07,-324 256.07,-324 250.07,-324 244.07,-318 244.07,-312 244.07,-312 244.07,-300 244.07,-300 244.07,-294 250.07,-288 256.07,-288 256.07,-288 314.82,-288 314.82,-288 320.82,-288 326.82,-294 326.82,-300 326.82,-300 326.82,-312 326.82,-312 326.82,-318 320.82,-324 314.82,-324"/>
<text text-anchor="middle" x="285.45" y="-301.75" font-family="sans" font-size="10.00">bcftools_merge</text>
</g>
<!-- 11&#45;&gt;10 -->
<g id="edge12" class="edge">
<title>11&#45;&gt;10</title>
<path fill="none" stroke="grey" stroke-width="2" d="M285.45,-287.34C285.45,-280.75 285.45,-273.08 285.45,-265.67"/>
<polygon fill="grey" stroke="grey" stroke-width="2" points="288.95,-265.93 285.45,-255.93 281.95,-265.93 288.95,-265.93"/>
</g>
<!-- 12 -->
<g id="node13" class="node">
<title>12</title>
<path fill="none" stroke="#56a2d8" stroke-width="2" stroke-dasharray="5,2" d="M264.7,-396C264.7,-396 190.2,-396 190.2,-396 184.2,-396 178.2,-390 178.2,-384 178.2,-384 178.2,-372 178.2,-372 178.2,-366 184.2,-360 190.2,-360 190.2,-360 264.7,-360 264.7,-360 270.7,-360 276.7,-366 276.7,-372 276.7,-372 276.7,-384 276.7,-384 276.7,-390 270.7,-396 264.7,-396"/>
<text text-anchor="middle" x="227.45" y="-379" font-family="sans" font-size="10.00">bcftools_submerge</text>
<text text-anchor="middle" x="227.45" y="-368.5" font-family="sans" font-size="10.00">i: 0</text>
</g>
<!-- 12&#45;&gt;11 -->
<g id="edge13" class="edge">
<title>12&#45;&gt;11</title>
<path fill="none" stroke="grey" stroke-width="2" d="M242.08,-359.34C248.22,-351.93 255.5,-343.14 262.33,-334.9"/>
<polygon fill="grey" stroke="grey" stroke-width="2" points="265,-337.17 268.68,-327.23 259.61,-332.7 265,-337.17"/>
</g>
<!-- 13 -->
<g id="node14" class="node">
<title>13</title>
<path fill="none" stroke="#56d87b" stroke-width="2" stroke-dasharray="5,2" d="M492.95,-468C492.95,-468 443.95,-468 443.95,-468 437.95,-468 431.95,-462 431.95,-456 431.95,-456 431.95,-444 431.95,-444 431.95,-438 437.95,-432 443.95,-432 443.95,-432 492.95,-432 492.95,-432 498.95,-432 504.95,-438 504.95,-444 504.95,-444 504.95,-456 504.95,-456 504.95,-462 498.95,-468 492.95,-468"/>
<text text-anchor="middle" x="468.45" y="-445.75" font-family="sans" font-size="10.00">bcftools_sort</text>
</g>
<!-- 13&#45;&gt;12 -->
<g id="edge15" class="edge">
<title>13&#45;&gt;12</title>
<path fill="none" stroke="grey" stroke-width="2" d="M431.23,-434.6C428.6,-433.69 425.99,-432.81 423.45,-432 367.22,-414.05 349.35,-412.81 290.07,-396.93"/>
<polygon fill="grey" stroke="grey" stroke-width="2" points="291.12,-393.59 280.56,-394.34 289.29,-400.34 291.12,-393.59"/>
</g>
<!-- 28 -->
<g id="node29" class="node">
<title>28</title>
<path fill="none" stroke="#56a2d8" stroke-width="2" stroke-dasharray="5,2" d="M381.7,-396C381.7,-396 307.2,-396 307.2,-396 301.2,-396 295.2,-390 295.2,-384 295.2,-384 295.2,-372 295.2,-372 295.2,-366 301.2,-360 307.2,-360 307.2,-360 381.7,-360 381.7,-360 387.7,-360 393.7,-366 393.7,-372 393.7,-372 393.7,-384 393.7,-384 393.7,-390 387.7,-396 381.7,-396"/>
<text text-anchor="middle" x="344.45" y="-379" font-family="sans" font-size="10.00">bcftools_submerge</text>
<text text-anchor="middle" x="344.45" y="-368.5" font-family="sans" font-size="10.00">i: 1</text>
</g>
<!-- 13&#45;&gt;28 -->
<g id="edge35" class="edge">
<title>13&#45;&gt;28</title>
<path fill="none" stroke="grey" stroke-width="2" d="M436.83,-431.15C421.68,-422.6 403.3,-412.22 386.94,-402.99"/>
<polygon fill="grey" stroke="grey" stroke-width="2" points="389.06,-400.17 378.64,-398.3 385.62,-406.26 389.06,-400.17"/>
</g>
<!-- 14 -->
<g id="node15" class="node">
<title>14</title>
<path fill="none" stroke="#59d856" stroke-width="2" stroke-dasharray="5,2" d="M516.32,-540C516.32,-540 466.57,-540 466.57,-540 460.57,-540 454.57,-534 454.57,-528 454.57,-528 454.57,-516 454.57,-516 454.57,-510 460.57,-504 466.57,-504 466.57,-504 516.32,-504 516.32,-504 522.32,-504 528.32,-510 528.32,-516 528.32,-516 528.32,-528 528.32,-528 528.32,-534 522.32,-540 516.32,-540"/>
<text text-anchor="middle" x="491.45" y="-517.75" font-family="sans" font-size="10.00">vcftools_filter</text>
</g>
<!-- 14&#45;&gt;13 -->
<g id="edge20" class="edge">
<title>14&#45;&gt;13</title>
<path fill="none" stroke="grey" stroke-width="2" d="M485.64,-503.34C483.43,-496.59 480.83,-488.69 478.34,-481.11"/>
<polygon fill="grey" stroke="grey" stroke-width="2" points="481.72,-480.19 475.27,-471.78 475.07,-482.37 481.72,-480.19"/>
</g>
<!-- 15&#45;&gt;14 -->
<g id="edge21" class="edge">
<title>15&#45;&gt;14</title>
<path fill="none" stroke="grey" stroke-width="2" d="M501.17,-575.34C499.94,-568.75 498.52,-561.08 497.14,-553.67"/>
<polygon fill="grey" stroke="grey" stroke-width="2" points="500.59,-553.07 495.32,-543.88 493.71,-554.35 500.59,-553.07"/>
</g>
<!-- 16 -->
<g id="node17" class="node">
<title>16</title>
<path fill="none" stroke="#56d87b" stroke-width="2" stroke-dasharray="5,2" d="M128.95,-468C128.95,-468 79.95,-468 79.95,-468 73.95,-468 67.95,-462 67.95,-456 67.95,-456 67.95,-444 67.95,-444 67.95,-438 73.95,-432 79.95,-432 79.95,-432 128.95,-432 128.95,-432 134.95,-432 140.95,-438 140.95,-444 140.95,-444 140.95,-456 140.95,-456 140.95,-462 134.95,-468 128.95,-468"/>
<text text-anchor="middle" x="104.45" y="-445.75" font-family="sans" font-size="10.00">bcftools_sort</text>
</g>
<!-- 16&#45;&gt;12 -->
<g id="edge16" class="edge">
<title>16&#45;&gt;12</title>
<path fill="none" stroke="grey" stroke-width="2" d="M135.8,-431.15C150.69,-422.68 168.72,-412.42 184.83,-403.25"/>
<polygon fill="grey" stroke="grey" stroke-width="2" points="186.56,-406.3 193.52,-398.31 183.09,-400.21 186.56,-406.3"/>
</g>
<!-- 16&#45;&gt;28 -->
<g id="edge36" class="edge">
<title>16&#45;&gt;28</title>
<path fill="none" stroke="grey" stroke-width="2" d="M141.67,-434.6C144.29,-433.69 146.9,-432.82 149.45,-432 205.27,-414.12 222.99,-412.76 281.9,-396.91"/>
<polygon fill="grey" stroke="grey" stroke-width="2" points="282.61,-400.35 291.33,-394.34 280.77,-393.6 282.61,-400.35"/>
</g>
<!-- 17 -->
<g id="node18" class="node">
<title>17</title>
<path fill="none" stroke="#59d856" stroke-width="2" stroke-dasharray="5,2" d="M106.32,-540C106.32,-540 56.57,-540 56.57,-540 50.57,-540 44.57,-534 44.57,-528 44.57,-528 44.57,-516 44.57,-516 44.57,-510 50.57,-504 56.57,-504 56.57,-504 106.32,-504 106.32,-504 112.32,-504 118.32,-510 118.32,-516 118.32,-516 118.32,-528 118.32,-528 118.32,-534 112.32,-540 106.32,-540"/>
<text text-anchor="middle" x="81.45" y="-517.75" font-family="sans" font-size="10.00">vcftools_filter</text>
</g>
<!-- 17&#45;&gt;16 -->
<g id="edge23" class="edge">
<title>17&#45;&gt;16</title>
<path fill="none" stroke="grey" stroke-width="2" d="M87.25,-503.34C89.47,-496.59 92.06,-488.69 94.55,-481.11"/>
<polygon fill="grey" stroke="grey" stroke-width="2" points="97.82,-482.37 97.62,-471.78 91.17,-480.19 97.82,-482.37"/>
</g>
<!-- 18&#45;&gt;17 -->
<g id="edge24" class="edge">
<title>18&#45;&gt;17</title>
<path fill="none" stroke="grey" stroke-width="2" d="M76.21,-575.34C76.87,-568.75 77.64,-561.08 78.38,-553.67"/>
<polygon fill="grey" stroke="grey" stroke-width="2" points="81.84,-554.21 79.35,-543.91 74.88,-553.52 81.84,-554.21"/>
</g>
<!-- 19 -->
<g id="node20" class="node">
<title>19</title>
<path fill="none" stroke="#56d87b" stroke-width="2" stroke-dasharray="5,2" d="M219.95,-468C219.95,-468 170.95,-468 170.95,-468 164.95,-468 158.95,-462 158.95,-456 158.95,-456 158.95,-444 158.95,-444 158.95,-438 164.95,-432 170.95,-432 170.95,-432 219.95,-432 219.95,-432 225.95,-432 231.95,-438 231.95,-444 231.95,-444 231.95,-456 231.95,-456 231.95,-462 225.95,-468 219.95,-468"/>
<text text-anchor="middle" x="195.45" y="-445.75" font-family="sans" font-size="10.00">bcftools_sort</text>
</g>
<!-- 19&#45;&gt;12 -->
<g id="edge17" class="edge">
<title>19&#45;&gt;12</title>
<path fill="none" stroke="grey" stroke-width="2" d="M203.52,-431.34C206.68,-424.43 210.39,-416.31 213.93,-408.56"/>
<polygon fill="grey" stroke="grey" stroke-width="2" points="217.03,-410.2 218,-399.65 210.66,-407.29 217.03,-410.2"/>
</g>
<!-- 19&#45;&gt;28 -->
<g id="edge37" class="edge">
<title>19&#45;&gt;28</title>
<path fill="none" stroke="grey" stroke-width="2" d="M232.66,-431.52C251.4,-422.72 274.37,-411.92 294.6,-402.42"/>
<polygon fill="grey" stroke="grey" stroke-width="2" points="295.85,-405.7 303.41,-398.28 292.87,-399.36 295.85,-405.7"/>
</g>
<!-- 20 -->
<g id="node21" class="node">
<title>20</title>
<path fill="none" stroke="#59d856" stroke-width="2" stroke-dasharray="5,2" d="M212.32,-540C212.32,-540 162.57,-540 162.57,-540 156.57,-540 150.57,-534 150.57,-528 150.57,-528 150.57,-516 150.57,-516 150.57,-510 156.57,-504 162.57,-504 162.57,-504 212.32,-504 212.32,-504 218.32,-504 224.32,-510 224.32,-516 224.32,-516 224.32,-528 224.32,-528 224.32,-534 218.32,-540 212.32,-540"/>
<text text-anchor="middle" x="187.45" y="-517.75" font-family="sans" font-size="10.00">vcftools_filter</text>
</g>
<!-- 20&#45;&gt;19 -->
<g id="edge26" class="edge">
<title>20&#45;&gt;19</title>
<path fill="none" stroke="grey" stroke-width="2" d="M189.46,-503.34C190.22,-496.75 191.09,-489.08 191.94,-481.67"/>
<polygon fill="grey" stroke="grey" stroke-width="2" points="195.4,-482.24 193.06,-471.91 188.44,-481.45 195.4,-482.24"/>
</g>
<!-- 21&#45;&gt;20 -->
<g id="edge27" class="edge">
<title>21&#45;&gt;20</title>
<path fill="none" stroke="grey" stroke-width="2" d="M182.21,-575.34C182.87,-568.75 183.64,-561.08 184.38,-553.67"/>
<polygon fill="grey" stroke="grey" stroke-width="2" points="187.84,-554.21 185.35,-543.91 180.88,-553.52 187.84,-554.21"/>
</g>
<!-- 22 -->
<g id="node23" class="node">
<title>22</title>
<path fill="none" stroke="#56d87b" stroke-width="2" stroke-dasharray="5,2" d="M310.95,-468C310.95,-468 261.95,-468 261.95,-468 255.95,-468 249.95,-462 249.95,-456 249.95,-456 249.95,-444 249.95,-444 249.95,-438 255.95,-432 261.95,-432 261.95,-432 310.95,-432 310.95,-432 316.95,-432 322.95,-438 322.95,-444 322.95,-444 322.95,-456 322.95,-456 322.95,-462 316.95,-468 310.95,-468"/>
<text text-anchor="middle" x="286.45" y="-445.75" font-family="sans" font-size="10.00">bcftools_sort</text>
</g>
<!-- 22&#45;&gt;12 -->
<g id="edge18" class="edge">
<title>22&#45;&gt;12</title>
<path fill="none" stroke="grey" stroke-width="2" d="M271.56,-431.34C265.25,-423.85 257.74,-414.95 250.73,-406.63"/>
<polygon fill="grey" stroke="grey" stroke-width="2" points="253.61,-404.61 244.49,-399.22 248.25,-409.12 253.61,-404.61"/>
</g>
<!-- 22&#45;&gt;28 -->
<g id="edge38" class="edge">
<title>22&#45;&gt;28</title>
<path fill="none" stroke="grey" stroke-width="2" d="M301.08,-431.34C307.22,-423.93 314.5,-415.14 321.33,-406.9"/>
<polygon fill="grey" stroke="grey" stroke-width="2" points="324,-409.17 327.68,-399.23 318.61,-404.7 324,-409.17"/>
</g>
<!-- 23 -->
<g id="node24" class="node">
<title>23</title>
<path fill="none" stroke="#59d856" stroke-width="2" stroke-dasharray="5,2" d="M311.32,-540C311.32,-540 261.57,-540 261.57,-540 255.57,-540 249.57,-534 249.57,-528 249.57,-528 249.57,-516 249.57,-516 249.57,-510 255.57,-504 261.57,-504 261.57,-504 311.32,-504 311.32,-504 317.32,-504 323.32,-510 323.32,-516 323.32,-516 323.32,-528 323.32,-528 323.32,-534 317.32,-540 311.32,-540"/>
<text text-anchor="middle" x="286.45" y="-517.75" font-family="sans" font-size="10.00">vcftools_filter</text>
</g>
<!-- 23&#45;&gt;22 -->
<g id="edge29" class="edge">
<title>23&#45;&gt;22</title>
<path fill="none" stroke="grey" stroke-width="2" d="M286.45,-503.34C286.45,-496.75 286.45,-489.08 286.45,-481.67"/>
<polygon fill="grey" stroke="grey" stroke-width="2" points="289.95,-481.93 286.45,-471.93 282.95,-481.93 289.95,-481.93"/>
</g>
<!-- 24&#45;&gt;23 -->
<g id="edge30" class="edge">
<title>24&#45;&gt;23</title>
<path fill="none" stroke="grey" stroke-width="2" d="M286.45,-575.34C286.45,-568.75 286.45,-561.08 286.45,-553.67"/>
<polygon fill="grey" stroke="grey" stroke-width="2" points="289.95,-553.93 286.45,-543.93 282.95,-553.93 289.95,-553.93"/>
</g>
<!-- 25 -->
<g id="node26" class="node">
<title>25</title>
<path fill="none" stroke="#56d87b" stroke-width="2" stroke-dasharray="5,2" d="M401.95,-468C401.95,-468 352.95,-468 352.95,-468 346.95,-468 340.95,-462 340.95,-456 340.95,-456 340.95,-444 340.95,-444 340.95,-438 346.95,-432 352.95,-432 352.95,-432 401.95,-432 401.95,-432 407.95,-432 413.95,-438 413.95,-444 413.95,-444 413.95,-456 413.95,-456 413.95,-462 407.95,-468 401.95,-468"/>
<text text-anchor="middle" x="377.45" y="-445.75" font-family="sans" font-size="10.00">bcftools_sort</text>
</g>
<!-- 25&#45;&gt;12 -->
<g id="edge19" class="edge">
<title>25&#45;&gt;12</title>
<path fill="none" stroke="grey" stroke-width="2" d="M339.98,-431.52C321.12,-422.72 297.99,-411.92 277.62,-402.42"/>
<polygon fill="grey" stroke="grey" stroke-width="2" points="279.28,-399.33 268.74,-398.27 276.32,-405.67 279.28,-399.33"/>
</g>
<!-- 25&#45;&gt;28 -->
<g id="edge39" class="edge">
<title>25&#45;&gt;28</title>
<path fill="none" stroke="grey" stroke-width="2" d="M369.12,-431.34C365.86,-424.43 362.03,-416.31 358.38,-408.56"/>
<polygon fill="grey" stroke="grey" stroke-width="2" points="361.61,-407.19 354.18,-399.64 355.27,-410.18 361.61,-407.19"/>
</g>
<!-- 26 -->
<g id="node27" class="node">
<title>26</title>
<path fill="none" stroke="#59d856" stroke-width="2" stroke-dasharray="5,2" d="M410.32,-540C410.32,-540 360.57,-540 360.57,-540 354.57,-540 348.57,-534 348.57,-528 348.57,-528 348.57,-516 348.57,-516 348.57,-510 354.57,-504 360.57,-504 360.57,-504 410.32,-504 410.32,-504 416.32,-504 422.32,-510 422.32,-516 422.32,-516 422.32,-528 422.32,-528 422.32,-534 416.32,-540 410.32,-540"/>
<text text-anchor="middle" x="385.45" y="-517.75" font-family="sans" font-size="10.00">vcftools_filter</text>
</g>
<!-- 26&#45;&gt;25 -->
<g id="edge32" class="edge">
<title>26&#45;&gt;25</title>
<path fill="none" stroke="grey" stroke-width="2" d="M383.43,-503.34C382.68,-496.75 381.8,-489.08 380.95,-481.67"/>
<polygon fill="grey" stroke="grey" stroke-width="2" points="384.45,-481.45 379.84,-471.91 377.49,-482.24 384.45,-481.45"/>
</g>
<!-- 27&#45;&gt;26 -->
<g id="edge33" class="edge">
<title>27&#45;&gt;26</title>
<path fill="none" stroke="grey" stroke-width="2" d="M390.68,-575.34C390.02,-568.75 389.25,-561.08 388.51,-553.67"/>
<polygon fill="grey" stroke="grey" stroke-width="2" points="392.02,-553.52 387.54,-543.91 385.05,-554.21 392.02,-553.52"/>
</g>
<!-- 28&#45;&gt;11 -->
<g id="edge14" class="edge">
<title>28&#45;&gt;11</title>
<path fill="none" stroke="grey" stroke-width="2" d="M329.56,-359.34C323.25,-351.85 315.74,-342.95 308.73,-334.63"/>
<polygon fill="grey" stroke="grey" stroke-width="2" points="311.61,-332.61 302.49,-327.22 306.25,-337.12 311.61,-332.61"/>
</g>
<!-- 29 -->
<g id="node30" class="node">
<title>29</title>
<path fill="none" stroke="#d85656" stroke-width="2" stroke-dasharray="5,2" d="M369.7,-108C369.7,-108 307.2,-108 307.2,-108 301.2,-108 295.2,-102 295.2,-96 295.2,-96 295.2,-84 295.2,-84 295.2,-78 301.2,-72 307.2,-72 307.2,-72 369.7,-72 369.7,-72 375.7,-72 381.7,-78 381.7,-84 381.7,-84 381.7,-96 381.7,-96 381.7,-102 375.7,-108 369.7,-108"/>
<text text-anchor="middle" x="338.45" y="-85.75" font-family="sans" font-size="10.00">piawka_agg_het</text>
</g>
<!-- 29&#45;&gt;0 -->
<g id="edge2" class="edge">
<title>29&#45;&gt;0</title>
<path fill="none" stroke="grey" stroke-width="2" d="M325.07,-71.34C319.53,-64.01 312.96,-55.34 306.78,-47.18"/>
<polygon fill="grey" stroke="grey" stroke-width="2" points="309.65,-45.18 300.83,-39.32 304.07,-49.4 309.65,-45.18"/>
</g>
<!-- 30&#45;&gt;29 -->
<g id="edge40" class="edge">
<title>30&#45;&gt;29</title>
<path fill="none" stroke="grey" stroke-width="2" d="M338.45,-143.34C338.45,-136.75 338.45,-129.08 338.45,-121.67"/>
<polygon fill="grey" stroke="grey" stroke-width="2" points="341.95,-121.93 338.45,-111.93 334.95,-121.93 341.95,-121.93"/>
</g>
</g>
</svg>
