<?xml version="1.0" encoding="UTF-8" standalone="no"?>
<!DOCTYPE svg PUBLIC "-//W3C//DTD SVG 1.1//EN"
 "http://www.w3.org/Graphics/SVG/1.1/DTD/svg11.dtd">
<!-- Generated by graphviz version 12.0.0 (0)
 -->
<!-- Title: snakemake_dag Pages: 1 -->
<svg width="202pt" height="836pt"
 viewBox="0.00 0.00 201.62 836.00" xmlns="http://www.w3.org/2000/svg" xmlns:xlink="http://www.w3.org/1999/xlink">
<g id="graph0" class="graph" transform="scale(1 1) rotate(0) translate(4 832)">
<title>snakemake_dag</title>
<polygon fill="white" stroke="none" points="-4,4 -4,-832 197.62,-832 197.62,4 -4,4"/>
<!-- 0 -->
<g id="node1" class="node">
<title>0</title>
<path fill="none" stroke="#56d8c9" stroke-width="2" d="M112.38,-36C112.38,-36 82.38,-36 82.38,-36 76.38,-36 70.38,-30 70.38,-24 70.38,-24 70.38,-12 70.38,-12 70.38,-6 76.38,0 82.38,0 82.38,0 112.38,0 112.38,0 118.38,0 124.38,-6 124.38,-12 124.38,-12 124.38,-24 124.38,-24 124.38,-30 118.38,-36 112.38,-36"/>
<text text-anchor="middle" x="97.38" y="-13.75" font-family="sans" font-size="10.00">all</text>
</g>
<!-- 1 -->
<g id="node2" class="node">
<title>1</title>
<path fill="none" stroke="#56d87b" stroke-width="2" d="M76.75,-108C76.75,-108 12,-108 12,-108 6,-108 0,-102 0,-96 0,-96 0,-84 0,-84 0,-78 6,-72 12,-72 12,-72 76.75,-72 76.75,-72 82.75,-72 88.75,-78 88.75,-84 88.75,-84 88.75,-96 88.75,-96 88.75,-102 82.75,-108 76.75,-108"/>
<text text-anchor="middle" x="44.38" y="-85.75" font-family="sans" font-size="10.00">piawka_agg_dxy</text>
</g>
<!-- 1&#45;&gt;0 -->
<g id="edge1" class="edge">
<title>1&#45;&gt;0</title>
<path fill="none" stroke="grey" stroke-width="2" d="M57.75,-71.34C63.29,-64.01 69.86,-55.34 76.04,-47.18"/>
<polygon fill="grey" stroke="grey" stroke-width="2" points="78.75,-49.4 81.99,-39.32 73.17,-45.18 78.75,-49.4"/>
</g>
<!-- 2 -->
<g id="node3" class="node">
<title>2</title>
<path fill="none" stroke="#9fd856" stroke-width="2" d="M62.12,-180C62.12,-180 26.62,-180 26.62,-180 20.62,-180 14.62,-174 14.62,-168 14.62,-168 14.62,-156 14.62,-156 14.62,-150 20.62,-144 26.62,-144 26.62,-144 62.12,-144 62.12,-144 68.12,-144 74.12,-150 74.12,-156 74.12,-156 74.12,-168 74.12,-168 74.12,-174 68.12,-180 62.12,-180"/>
<text text-anchor="middle" x="44.38" y="-157.75" font-family="sans" font-size="10.00">piawka_pi</text>
</g>
<!-- 2&#45;&gt;1 -->
<g id="edge3" class="edge">
<title>2&#45;&gt;1</title>
<path fill="none" stroke="grey" stroke-width="2" d="M44.38,-143.34C44.38,-136.75 44.38,-129.08 44.38,-121.67"/>
<polygon fill="grey" stroke="grey" stroke-width="2" points="47.88,-121.93 44.38,-111.93 40.88,-121.93 47.88,-121.93"/>
</g>
<!-- 3 -->
<g id="node4" class="node">
<title>3</title>
<path fill="none" stroke="#567bd8" stroke-width="2" d="M114.75,-684C114.75,-684 80,-684 80,-684 74,-684 68,-678 68,-672 68,-672 68,-660 68,-660 68,-654 74,-648 80,-648 80,-648 114.75,-648 114.75,-648 120.75,-648 126.75,-654 126.75,-660 126.75,-660 126.75,-672 126.75,-672 126.75,-678 120.75,-684 114.75,-684"/>
<text text-anchor="middle" x="97.38" y="-661.75" font-family="sans" font-size="10.00">fasta2bed</text>
</g>
<!-- 3&#45;&gt;2 -->
<g id="edge5" class="edge">
<title>3&#45;&gt;2</title>
<path fill="none" stroke="grey" stroke-width="2" d="M80.29,-647.39C57.6,-622.07 20.38,-572.92 20.38,-523 20.38,-523 20.38,-523 20.38,-305 20.38,-265.93 29.32,-221.65 36.28,-193.08"/>
<polygon fill="grey" stroke="grey" stroke-width="2" points="39.6,-194.26 38.66,-183.7 32.81,-192.54 39.6,-194.26"/>
</g>
<!-- 11 -->
<g id="node12" class="node">
<title>11</title>
<path fill="none" stroke="#56d8a2" stroke-width="2" d="M120.75,-612C120.75,-612 74,-612 74,-612 68,-612 62,-606 62,-600 62,-600 62,-588 62,-588 62,-582 68,-576 74,-576 74,-576 120.75,-576 120.75,-576 126.75,-576 132.75,-582 132.75,-588 132.75,-588 132.75,-600 132.75,-600 132.75,-606 126.75,-612 120.75,-612"/>
<text text-anchor="middle" x="97.38" y="-589.75" font-family="sans" font-size="10.00">bcftools_call</text>
</g>
<!-- 3&#45;&gt;11 -->
<g id="edge13" class="edge">
<title>3&#45;&gt;11</title>
<path fill="none" stroke="grey" stroke-width="2" d="M97.38,-647.34C97.38,-640.75 97.38,-633.08 97.38,-625.67"/>
<polygon fill="grey" stroke="grey" stroke-width="2" points="100.88,-625.93 97.38,-615.93 93.88,-625.93 100.88,-625.93"/>
</g>
<!-- 13 -->
<g id="node14" class="node">
<title>13</title>
<path fill="none" stroke="#d8a456" stroke-width="2" d="M171.12,-180C171.12,-180 129.62,-180 129.62,-180 123.62,-180 117.62,-174 117.62,-168 117.62,-168 117.62,-156 117.62,-156 117.62,-150 123.62,-144 129.62,-144 129.62,-144 171.12,-144 171.12,-144 177.12,-144 183.12,-150 183.12,-156 183.12,-156 183.12,-168 183.12,-168 183.12,-174 177.12,-180 171.12,-180"/>
<text text-anchor="middle" x="150.38" y="-157.75" font-family="sans" font-size="10.00">piawka_het</text>
</g>
<!-- 3&#45;&gt;13 -->
<g id="edge16" class="edge">
<title>3&#45;&gt;13</title>
<path fill="none" stroke="grey" stroke-width="2" d="M114.46,-647.39C137.15,-622.07 174.38,-572.92 174.38,-523 174.38,-523 174.38,-523 174.38,-305 174.38,-265.93 165.43,-221.65 158.47,-193.08"/>
<polygon fill="grey" stroke="grey" stroke-width="2" points="161.94,-192.54 156.09,-183.7 155.15,-194.26 161.94,-192.54"/>
</g>
<!-- 4 -->
<g id="node5" class="node">
<title>4</title>
<path fill="none" stroke="#c6d856" stroke-width="2" d="M112.38,-756C112.38,-756 82.38,-756 82.38,-756 76.38,-756 70.38,-750 70.38,-744 70.38,-744 70.38,-732 70.38,-732 70.38,-726 76.38,-720 82.38,-720 82.38,-720 112.38,-720 112.38,-720 118.38,-720 124.38,-726 124.38,-732 124.38,-732 124.38,-744 124.38,-744 124.38,-750 118.38,-756 112.38,-756"/>
<text text-anchor="middle" x="97.38" y="-733.75" font-family="sans" font-size="10.00">gstacks</text>
</g>
<!-- 4&#45;&gt;3 -->
<g id="edge6" class="edge">
<title>4&#45;&gt;3</title>
<path fill="none" stroke="grey" stroke-width="2" d="M97.38,-719.34C97.38,-712.75 97.38,-705.08 97.38,-697.67"/>
<polygon fill="grey" stroke="grey" stroke-width="2" points="100.88,-697.93 97.38,-687.93 93.88,-697.93 100.88,-697.93"/>
</g>
<!-- 5 -->
<g id="node6" class="node">
<title>5</title>
<path fill="none" stroke="#78d856" stroke-width="2" d="M127.5,-828C127.5,-828 67.25,-828 67.25,-828 61.25,-828 55.25,-822 55.25,-816 55.25,-816 55.25,-804 55.25,-804 55.25,-798 61.25,-792 67.25,-792 67.25,-792 127.5,-792 127.5,-792 133.5,-792 139.5,-798 139.5,-804 139.5,-804 139.5,-816 139.5,-816 139.5,-822 133.5,-828 127.5,-828"/>
<text text-anchor="middle" x="97.38" y="-805.75" font-family="sans" font-size="10.00">samtools_index</text>
</g>
<!-- 5&#45;&gt;4 -->
<g id="edge7" class="edge">
<title>5&#45;&gt;4</title>
<path fill="none" stroke="grey" stroke-width="2" d="M97.38,-791.34C97.38,-784.75 97.38,-777.08 97.38,-769.67"/>
<polygon fill="grey" stroke="grey" stroke-width="2" points="100.88,-769.93 97.38,-759.93 93.88,-769.93 100.88,-769.93"/>
</g>
<!-- 6 -->
<g id="node7" class="node">
<title>6</title>
<path fill="none" stroke="#59d856" stroke-width="2" d="M112.38,-252C112.38,-252 82.38,-252 82.38,-252 76.38,-252 70.38,-246 70.38,-240 70.38,-240 70.38,-228 70.38,-228 70.38,-222 76.38,-216 82.38,-216 82.38,-216 112.38,-216 112.38,-216 118.38,-216 124.38,-222 124.38,-228 124.38,-228 124.38,-240 124.38,-240 124.38,-246 118.38,-252 112.38,-252"/>
<text text-anchor="middle" x="97.38" y="-229.75" font-family="sans" font-size="10.00">reheader</text>
</g>
<!-- 6&#45;&gt;2 -->
<g id="edge4" class="edge">
<title>6&#45;&gt;2</title>
<path fill="none" stroke="grey" stroke-width="2" d="M84,-215.34C78.46,-208.01 71.89,-199.34 65.71,-191.18"/>
<polygon fill="grey" stroke="grey" stroke-width="2" points="68.58,-189.18 59.76,-183.32 63,-193.4 68.58,-189.18"/>
</g>
<!-- 6&#45;&gt;13 -->
<g id="edge15" class="edge">
<title>6&#45;&gt;13</title>
<path fill="none" stroke="grey" stroke-width="2" d="M110.75,-215.34C116.29,-208.01 122.86,-199.34 129.04,-191.18"/>
<polygon fill="grey" stroke="grey" stroke-width="2" points="131.75,-193.4 134.99,-183.32 126.17,-189.18 131.75,-193.4"/>
</g>
<!-- 7 -->
<g id="node8" class="node">
<title>7</title>
<path fill="none" stroke="#d85656" stroke-width="2" d="M126.75,-324C126.75,-324 68,-324 68,-324 62,-324 56,-318 56,-312 56,-312 56,-300 56,-300 56,-294 62,-288 68,-288 68,-288 126.75,-288 126.75,-288 132.75,-288 138.75,-294 138.75,-300 138.75,-300 138.75,-312 138.75,-312 138.75,-318 132.75,-324 126.75,-324"/>
<text text-anchor="middle" x="97.38" y="-301.75" font-family="sans" font-size="10.00">bcftools_merge</text>
</g>
<!-- 7&#45;&gt;6 -->
<g id="edge8" class="edge">
<title>7&#45;&gt;6</title>
<path fill="none" stroke="grey" stroke-width="2" d="M97.38,-287.34C97.38,-280.75 97.38,-273.08 97.38,-265.67"/>
<polygon fill="grey" stroke="grey" stroke-width="2" points="100.88,-265.93 97.38,-255.93 93.88,-265.93 100.88,-265.93"/>
</g>
<!-- 8 -->
<g id="node9" class="node">
<title>8</title>
<path fill="none" stroke="#d87d56" stroke-width="2" d="M134.62,-396C134.62,-396 60.12,-396 60.12,-396 54.12,-396 48.12,-390 48.12,-384 48.12,-384 48.12,-372 48.12,-372 48.12,-366 54.12,-360 60.12,-360 60.12,-360 134.62,-360 134.62,-360 140.62,-360 146.62,-366 146.62,-372 146.62,-372 146.62,-384 146.62,-384 146.62,-390 140.62,-396 134.62,-396"/>
<text text-anchor="middle" x="97.38" y="-373.75" font-family="sans" font-size="10.00">bcftools_submerge</text>
</g>
<!-- 8&#45;&gt;7 -->
<g id="edge9" class="edge">
<title>8&#45;&gt;7</title>
<path fill="none" stroke="grey" stroke-width="2" d="M97.38,-359.34C97.38,-352.75 97.38,-345.08 97.38,-337.67"/>
<polygon fill="grey" stroke="grey" stroke-width="2" points="100.88,-337.93 97.38,-327.93 93.88,-337.93 100.88,-337.93"/>
</g>
<!-- 9 -->
<g id="node10" class="node">
<title>9</title>
<path fill="none" stroke="#56c9d8" stroke-width="2" d="M121.88,-468C121.88,-468 72.88,-468 72.88,-468 66.88,-468 60.88,-462 60.88,-456 60.88,-456 60.88,-444 60.88,-444 60.88,-438 66.88,-432 72.88,-432 72.88,-432 121.88,-432 121.88,-432 127.88,-432 133.88,-438 133.88,-444 133.88,-444 133.88,-456 133.88,-456 133.88,-462 127.88,-468 121.88,-468"/>
<text text-anchor="middle" x="97.38" y="-445.75" font-family="sans" font-size="10.00">bcftools_sort</text>
</g>
<!-- 9&#45;&gt;8 -->
<g id="edge10" class="edge">
<title>9&#45;&gt;8</title>
<path fill="none" stroke="grey" stroke-width="2" d="M97.38,-431.34C97.38,-424.75 97.38,-417.08 97.38,-409.67"/>
<polygon fill="grey" stroke="grey" stroke-width="2" points="100.88,-409.93 97.38,-399.93 93.88,-409.93 100.88,-409.93"/>
</g>
<!-- 10 -->
<g id="node11" class="node">
<title>10</title>
<path fill="none" stroke="#d8c356" stroke-width="2" d="M122.25,-540C122.25,-540 72.5,-540 72.5,-540 66.5,-540 60.5,-534 60.5,-528 60.5,-528 60.5,-516 60.5,-516 60.5,-510 66.5,-504 72.5,-504 72.5,-504 122.25,-504 122.25,-504 128.25,-504 134.25,-510 134.25,-516 134.25,-516 134.25,-528 134.25,-528 134.25,-534 128.25,-540 122.25,-540"/>
<text text-anchor="middle" x="97.38" y="-517.75" font-family="sans" font-size="10.00">vcftools_filter</text>
</g>
<!-- 10&#45;&gt;9 -->
<g id="edge11" class="edge">
<title>10&#45;&gt;9</title>
<path fill="none" stroke="grey" stroke-width="2" d="M97.38,-503.34C97.38,-496.75 97.38,-489.08 97.38,-481.67"/>
<polygon fill="grey" stroke="grey" stroke-width="2" points="100.88,-481.93 97.38,-471.93 93.88,-481.93 100.88,-481.93"/>
</g>
<!-- 11&#45;&gt;10 -->
<g id="edge12" class="edge">
<title>11&#45;&gt;10</title>
<path fill="none" stroke="grey" stroke-width="2" d="M97.38,-575.34C97.38,-568.75 97.38,-561.08 97.38,-553.67"/>
<polygon fill="grey" stroke="grey" stroke-width="2" points="100.88,-553.93 97.38,-543.93 93.88,-553.93 100.88,-553.93"/>
</g>
<!-- 12 -->
<g id="node13" class="node">
<title>12</title>
<path fill="none" stroke="#56a2d8" stroke-width="2" d="M181.62,-108C181.62,-108 119.12,-108 119.12,-108 113.12,-108 107.12,-102 107.12,-96 107.12,-96 107.12,-84 107.12,-84 107.12,-78 113.12,-72 119.12,-72 119.12,-72 181.62,-72 181.62,-72 187.62,-72 193.62,-78 193.62,-84 193.62,-84 193.62,-96 193.62,-96 193.62,-102 187.62,-108 181.62,-108"/>
<text text-anchor="middle" x="150.38" y="-85.75" font-family="sans" font-size="10.00">piawka_agg_het</text>
</g>
<!-- 12&#45;&gt;0 -->
<g id="edge2" class="edge">
<title>12&#45;&gt;0</title>
<path fill="none" stroke="grey" stroke-width="2" d="M137,-71.34C131.46,-64.01 124.89,-55.34 118.71,-47.18"/>
<polygon fill="grey" stroke="grey" stroke-width="2" points="121.58,-45.18 112.76,-39.32 116,-49.4 121.58,-45.18"/>
</g>
<!-- 13&#45;&gt;12 -->
<g id="edge14" class="edge">
<title>13&#45;&gt;12</title>
<path fill="none" stroke="grey" stroke-width="2" d="M150.38,-143.34C150.38,-136.75 150.38,-129.08 150.38,-121.67"/>
<polygon fill="grey" stroke="grey" stroke-width="2" points="153.88,-121.93 150.38,-111.93 146.88,-121.93 153.88,-121.93"/>
</g>
</g>
</svg>
