<?xml version="1.0" encoding="UTF-8" standalone="no"?>
<!DOCTYPE svg PUBLIC "-//W3C//DTD SVG 1.1//EN"
 "http://www.w3.org/Graphics/SVG/1.1/DTD/svg11.dtd">
<!-- Generated by graphviz version 12.0.0 (0)
 -->
<!-- Title: snakemake_dag Pages: 1 -->
<svg width="179pt" height="980pt"
 viewBox="0.00 0.00 179.25 980.00" xmlns="http://www.w3.org/2000/svg" xmlns:xlink="http://www.w3.org/1999/xlink">
<g id="graph0" class="graph" transform="scale(1 1) rotate(0) translate(4 976)">
<title>snakemake_dag</title>
<polygon fill="white" stroke="none" points="-4,4 -4,-976 175.25,-976 175.25,4 -4,4"/>
<!-- 0 -->
<g id="node1" class="node">
<title>0</title>
<path fill="none" stroke="#d85656" stroke-width="2" d="M72,-36C72,-36 42,-36 42,-36 36,-36 30,-30 30,-24 30,-24 30,-12 30,-12 30,-6 36,0 42,0 42,0 72,0 72,0 78,0 84,-6 84,-12 84,-12 84,-24 84,-24 84,-30 78,-36 72,-36"/>
<text text-anchor="middle" x="57" y="-13.75" font-family="sans" font-size="10.00">all</text>
</g>
<!-- 1 -->
<g id="node2" class="node">
<title>1</title>
<path fill="none" stroke="#56c9d8" stroke-width="2" d="M85.25,-108C85.25,-108 28.75,-108 28.75,-108 22.75,-108 16.75,-102 16.75,-96 16.75,-96 16.75,-84 16.75,-84 16.75,-78 22.75,-72 28.75,-72 28.75,-72 85.25,-72 85.25,-72 91.25,-72 97.25,-78 97.25,-84 97.25,-84 97.25,-96 97.25,-96 97.25,-102 91.25,-108 85.25,-108"/>
<text text-anchor="middle" x="57" y="-85.75" font-family="sans" font-size="10.00">piawka_agg_pi</text>
</g>
<!-- 1&#45;&gt;0 -->
<g id="edge1" class="edge">
<title>1&#45;&gt;0</title>
<path fill="none" stroke="grey" stroke-width="2" d="M57,-71.34C57,-64.75 57,-57.08 57,-49.67"/>
<polygon fill="grey" stroke="grey" stroke-width="2" points="60.5,-49.93 57,-39.93 53.5,-49.93 60.5,-49.93"/>
</g>
<!-- 2 -->
<g id="node3" class="node">
<title>2</title>
<path fill="none" stroke="#56d8c9" stroke-width="2" d="M74.75,-180C74.75,-180 39.25,-180 39.25,-180 33.25,-180 27.25,-174 27.25,-168 27.25,-168 27.25,-156 27.25,-156 27.25,-150 33.25,-144 39.25,-144 39.25,-144 74.75,-144 74.75,-144 80.75,-144 86.75,-150 86.75,-156 86.75,-156 86.75,-168 86.75,-168 86.75,-174 80.75,-180 74.75,-180"/>
<text text-anchor="middle" x="57" y="-157.75" font-family="sans" font-size="10.00">piawka_pi</text>
</g>
<!-- 2&#45;&gt;1 -->
<g id="edge2" class="edge">
<title>2&#45;&gt;1</title>
<path fill="none" stroke="grey" stroke-width="2" d="M57,-143.34C57,-136.75 57,-129.08 57,-121.67"/>
<polygon fill="grey" stroke="grey" stroke-width="2" points="60.5,-121.93 57,-111.93 53.5,-121.93 60.5,-121.93"/>
</g>
<!-- 3 -->
<g id="node4" class="node">
<title>3</title>
<path fill="none" stroke="#d87d56" stroke-width="2" d="M94.38,-828C94.38,-828 59.62,-828 59.62,-828 53.62,-828 47.62,-822 47.62,-816 47.62,-816 47.62,-804 47.62,-804 47.62,-798 53.62,-792 59.62,-792 59.62,-792 94.38,-792 94.38,-792 100.38,-792 106.38,-798 106.38,-804 106.38,-804 106.38,-816 106.38,-816 106.38,-822 100.38,-828 94.38,-828"/>
<text text-anchor="middle" x="77" y="-805.75" font-family="sans" font-size="10.00">fasta2bed</text>
</g>
<!-- 3&#45;&gt;2 -->
<g id="edge5" class="edge">
<title>3&#45;&gt;2</title>
<path fill="none" stroke="grey" stroke-width="2" d="M59.91,-791.39C37.23,-766.07 0,-716.92 0,-667 0,-667 0,-667 0,-305 0,-263.39 21.34,-219.54 37.9,-191.77"/>
<polygon fill="grey" stroke="grey" stroke-width="2" points="40.75,-193.82 43.04,-183.48 34.8,-190.14 40.75,-193.82"/>
</g>
<!-- 11 -->
<g id="node12" class="node">
<title>11</title>
<path fill="none" stroke="#d8c356" stroke-width="2" d="M100.38,-756C100.38,-756 53.62,-756 53.62,-756 47.62,-756 41.62,-750 41.62,-744 41.62,-744 41.62,-732 41.62,-732 41.62,-726 47.62,-720 53.62,-720 53.62,-720 100.38,-720 100.38,-720 106.38,-720 112.38,-726 112.38,-732 112.38,-732 112.38,-744 112.38,-744 112.38,-750 106.38,-756 100.38,-756"/>
<text text-anchor="middle" x="77" y="-733.75" font-family="sans" font-size="10.00">bcftools_call</text>
</g>
<!-- 3&#45;&gt;11 -->
<g id="edge13" class="edge">
<title>3&#45;&gt;11</title>
<path fill="none" stroke="grey" stroke-width="2" d="M77,-791.34C77,-784.75 77,-777.08 77,-769.67"/>
<polygon fill="grey" stroke="grey" stroke-width="2" points="80.5,-769.93 77,-759.93 73.5,-769.93 80.5,-769.93"/>
</g>
<!-- 13 -->
<g id="node14" class="node">
<title>13</title>
<path fill="none" stroke="#567bd8" stroke-width="2" d="M148.75,-324C148.75,-324 107.25,-324 107.25,-324 101.25,-324 95.25,-318 95.25,-312 95.25,-312 95.25,-300 95.25,-300 95.25,-294 101.25,-288 107.25,-288 107.25,-288 148.75,-288 148.75,-288 154.75,-288 160.75,-294 160.75,-300 160.75,-300 160.75,-312 160.75,-312 160.75,-318 154.75,-324 148.75,-324"/>
<text text-anchor="middle" x="128" y="-301.75" font-family="sans" font-size="10.00">piawka_het</text>
</g>
<!-- 3&#45;&gt;13 -->
<g id="edge16" class="edge">
<title>3&#45;&gt;13</title>
<path fill="none" stroke="grey" stroke-width="2" d="M94.09,-791.39C116.77,-766.07 154,-716.92 154,-667 154,-667 154,-667 154,-449 154,-409.84 144.31,-365.58 136.77,-337.04"/>
<polygon fill="grey" stroke="grey" stroke-width="2" points="140.21,-336.38 134.19,-327.66 133.46,-338.23 140.21,-336.38"/>
</g>
<!-- 4 -->
<g id="node5" class="node">
<title>4</title>
<path fill="none" stroke="#d8a456" stroke-width="2" d="M92,-900C92,-900 62,-900 62,-900 56,-900 50,-894 50,-888 50,-888 50,-876 50,-876 50,-870 56,-864 62,-864 62,-864 92,-864 92,-864 98,-864 104,-870 104,-876 104,-876 104,-888 104,-888 104,-894 98,-900 92,-900"/>
<text text-anchor="middle" x="77" y="-877.75" font-family="sans" font-size="10.00">gstacks</text>
</g>
<!-- 4&#45;&gt;3 -->
<g id="edge6" class="edge">
<title>4&#45;&gt;3</title>
<path fill="none" stroke="grey" stroke-width="2" d="M77,-863.34C77,-856.75 77,-849.08 77,-841.67"/>
<polygon fill="grey" stroke="grey" stroke-width="2" points="80.5,-841.93 77,-831.93 73.5,-841.93 80.5,-841.93"/>
</g>
<!-- 5 -->
<g id="node6" class="node">
<title>5</title>
<path fill="none" stroke="#59d856" stroke-width="2" d="M107.12,-972C107.12,-972 46.88,-972 46.88,-972 40.88,-972 34.88,-966 34.88,-960 34.88,-960 34.88,-948 34.88,-948 34.88,-942 40.88,-936 46.88,-936 46.88,-936 107.12,-936 107.12,-936 113.12,-936 119.12,-942 119.12,-948 119.12,-948 119.12,-960 119.12,-960 119.12,-966 113.12,-972 107.12,-972"/>
<text text-anchor="middle" x="77" y="-949.75" font-family="sans" font-size="10.00">samtools_index</text>
</g>
<!-- 5&#45;&gt;4 -->
<g id="edge7" class="edge">
<title>5&#45;&gt;4</title>
<path fill="none" stroke="grey" stroke-width="2" d="M77,-935.34C77,-928.75 77,-921.08 77,-913.67"/>
<polygon fill="grey" stroke="grey" stroke-width="2" points="80.5,-913.93 77,-903.93 73.5,-913.93 80.5,-913.93"/>
</g>
<!-- 6 -->
<g id="node7" class="node">
<title>6</title>
<path fill="none" stroke="#78d856" stroke-width="2" d="M92,-396C92,-396 62,-396 62,-396 56,-396 50,-390 50,-384 50,-384 50,-372 50,-372 50,-366 56,-360 62,-360 62,-360 92,-360 92,-360 98,-360 104,-366 104,-372 104,-372 104,-384 104,-384 104,-390 98,-396 92,-396"/>
<text text-anchor="middle" x="77" y="-373.75" font-family="sans" font-size="10.00">reheader</text>
</g>
<!-- 6&#45;&gt;2 -->
<g id="edge3" class="edge">
<title>6&#45;&gt;2</title>
<path fill="none" stroke="grey" stroke-width="2" d="M75.33,-359.12C71.92,-322.62 64.11,-239.13 59.87,-193.74"/>
<polygon fill="grey" stroke="grey" stroke-width="2" points="63.38,-193.62 58.96,-183.99 56.41,-194.27 63.38,-193.62"/>
</g>
<!-- 6&#45;&gt;13 -->
<g id="edge15" class="edge">
<title>6&#45;&gt;13</title>
<path fill="none" stroke="grey" stroke-width="2" d="M89.87,-359.34C95.2,-352.01 101.53,-343.34 107.47,-335.18"/>
<polygon fill="grey" stroke="grey" stroke-width="2" points="110.11,-337.49 113.17,-327.35 104.46,-333.37 110.11,-337.49"/>
</g>
<!-- 7 -->
<g id="node8" class="node">
<title>7</title>
<path fill="none" stroke="#56a2d8" stroke-width="2" d="M106.38,-468C106.38,-468 47.62,-468 47.62,-468 41.62,-468 35.62,-462 35.62,-456 35.62,-456 35.62,-444 35.62,-444 35.62,-438 41.62,-432 47.62,-432 47.62,-432 106.38,-432 106.38,-432 112.38,-432 118.38,-438 118.38,-444 118.38,-444 118.38,-456 118.38,-456 118.38,-462 112.38,-468 106.38,-468"/>
<text text-anchor="middle" x="77" y="-445.75" font-family="sans" font-size="10.00">bcftools_merge</text>
</g>
<!-- 7&#45;&gt;6 -->
<g id="edge8" class="edge">
<title>7&#45;&gt;6</title>
<path fill="none" stroke="grey" stroke-width="2" d="M77,-431.34C77,-424.75 77,-417.08 77,-409.67"/>
<polygon fill="grey" stroke="grey" stroke-width="2" points="80.5,-409.93 77,-399.93 73.5,-409.93 80.5,-409.93"/>
</g>
<!-- 8 -->
<g id="node9" class="node">
<title>8</title>
<path fill="none" stroke="#9fd856" stroke-width="2" d="M114.25,-540C114.25,-540 39.75,-540 39.75,-540 33.75,-540 27.75,-534 27.75,-528 27.75,-528 27.75,-516 27.75,-516 27.75,-510 33.75,-504 39.75,-504 39.75,-504 114.25,-504 114.25,-504 120.25,-504 126.25,-510 126.25,-516 126.25,-516 126.25,-528 126.25,-528 126.25,-534 120.25,-540 114.25,-540"/>
<text text-anchor="middle" x="77" y="-517.75" font-family="sans" font-size="10.00">bcftools_submerge</text>
</g>
<!-- 8&#45;&gt;7 -->
<g id="edge9" class="edge">
<title>8&#45;&gt;7</title>
<path fill="none" stroke="grey" stroke-width="2" d="M77,-503.34C77,-496.75 77,-489.08 77,-481.67"/>
<polygon fill="grey" stroke="grey" stroke-width="2" points="80.5,-481.93 77,-471.93 73.5,-481.93 80.5,-481.93"/>
</g>
<!-- 9 -->
<g id="node10" class="node">
<title>9</title>
<path fill="none" stroke="#c6d856" stroke-width="2" d="M101.5,-612C101.5,-612 52.5,-612 52.5,-612 46.5,-612 40.5,-606 40.5,-600 40.5,-600 40.5,-588 40.5,-588 40.5,-582 46.5,-576 52.5,-576 52.5,-576 101.5,-576 101.5,-576 107.5,-576 113.5,-582 113.5,-588 113.5,-588 113.5,-600 113.5,-600 113.5,-606 107.5,-612 101.5,-612"/>
<text text-anchor="middle" x="77" y="-589.75" font-family="sans" font-size="10.00">bcftools_sort</text>
</g>
<!-- 9&#45;&gt;8 -->
<g id="edge10" class="edge">
<title>9&#45;&gt;8</title>
<path fill="none" stroke="grey" stroke-width="2" d="M77,-575.34C77,-568.75 77,-561.08 77,-553.67"/>
<polygon fill="grey" stroke="grey" stroke-width="2" points="80.5,-553.93 77,-543.93 73.5,-553.93 80.5,-553.93"/>
</g>
<!-- 10 -->
<g id="node11" class="node">
<title>10</title>
<path fill="none" stroke="#56d87b" stroke-width="2" d="M101.88,-684C101.88,-684 52.12,-684 52.12,-684 46.12,-684 40.12,-678 40.12,-672 40.12,-672 40.12,-660 40.12,-660 40.12,-654 46.12,-648 52.12,-648 52.12,-648 101.88,-648 101.88,-648 107.88,-648 113.88,-654 113.88,-660 113.88,-660 113.88,-672 113.88,-672 113.88,-678 107.88,-684 101.88,-684"/>
<text text-anchor="middle" x="77" y="-661.75" font-family="sans" font-size="10.00">vcftools_filter</text>
</g>
<!-- 10&#45;&gt;9 -->
<g id="edge11" class="edge">
<title>10&#45;&gt;9</title>
<path fill="none" stroke="grey" stroke-width="2" d="M77,-647.34C77,-640.75 77,-633.08 77,-625.67"/>
<polygon fill="grey" stroke="grey" stroke-width="2" points="80.5,-625.93 77,-615.93 73.5,-625.93 80.5,-625.93"/>
</g>
<!-- 11&#45;&gt;10 -->
<g id="edge12" class="edge">
<title>11&#45;&gt;10</title>
<path fill="none" stroke="grey" stroke-width="2" d="M77,-719.34C77,-712.75 77,-705.08 77,-697.67"/>
<polygon fill="grey" stroke="grey" stroke-width="2" points="80.5,-697.93 77,-687.93 73.5,-697.93 80.5,-697.93"/>
</g>
<!-- 12 -->
<g id="node13" class="node">
<title>12</title>
<path fill="none" stroke="#56d8a2" stroke-width="2" d="M159.25,-252C159.25,-252 96.75,-252 96.75,-252 90.75,-252 84.75,-246 84.75,-240 84.75,-240 84.75,-228 84.75,-228 84.75,-222 90.75,-216 96.75,-216 96.75,-216 159.25,-216 159.25,-216 165.25,-216 171.25,-222 171.25,-228 171.25,-228 171.25,-240 171.25,-240 171.25,-246 165.25,-252 159.25,-252"/>
<text text-anchor="middle" x="128" y="-229.75" font-family="sans" font-size="10.00">piawka_agg_het</text>
</g>
<!-- 12&#45;&gt;2 -->
<g id="edge4" class="edge">
<title>12&#45;&gt;2</title>
<path fill="none" stroke="grey" stroke-width="2" d="M110.08,-215.34C102.24,-207.6 92.86,-198.36 84.19,-189.81"/>
<polygon fill="grey" stroke="grey" stroke-width="2" points="86.89,-187.56 77.31,-183.03 81.98,-192.54 86.89,-187.56"/>
</g>
<!-- 13&#45;&gt;12 -->
<g id="edge14" class="edge">
<title>13&#45;&gt;12</title>
<path fill="none" stroke="grey" stroke-width="2" d="M128,-287.34C128,-280.75 128,-273.08 128,-265.67"/>
<polygon fill="grey" stroke="grey" stroke-width="2" points="131.5,-265.93 128,-255.93 124.5,-265.93 131.5,-265.93"/>
</g>
</g>
</svg>
